<svg width="21" height="20" viewBox="0 0 21 20" fill="none" xmlns="http://www.w3.org/2000/svg">
<g id="Apple">
<g id="Vector">
<path d="M13.0926 2.4043C13.1556 3.22597 12.8957 4.03981 12.3683 4.67298C12.1157 4.98711 11.7951 5.23983 11.4308 5.41212C11.0664 5.58441 10.6676 5.67177 10.2646 5.66762C10.2389 5.27249 10.2913 4.87616 10.4188 4.5013C10.5464 4.12644 10.7465 3.78039 11.0079 3.48293C11.5425 2.87406 12.2868 2.48893 13.0926 2.4043Z" fill="black"/>
<path d="M14.5625 8.38462C14.2947 8.85645 14.1506 9.38834 14.1437 9.93082C14.1443 10.541 14.3246 11.1375 14.662 11.646C14.9994 12.1544 15.479 12.5523 16.041 12.79C15.82 13.5078 15.4869 14.1862 15.0541 14.7999C14.4728 15.6695 13.8633 16.519 12.896 16.5347C12.4359 16.5453 12.1253 16.413 11.8017 16.2752C11.4642 16.1314 11.1125 15.9815 10.5621 15.9815C9.97832 15.9815 9.61083 16.1362 9.2564 16.2854C8.95012 16.4143 8.65359 16.5391 8.23568 16.5564C7.31442 16.5905 6.61037 15.6283 6.00794 14.7669C4.80387 13.0078 3.8663 9.80943 5.12325 7.63318C5.41342 7.11174 5.83372 6.67436 6.34319 6.36365C6.85266 6.05295 7.43392 5.87951 8.03035 5.86024C8.55285 5.84949 9.05422 6.05088 9.49379 6.22744C9.82995 6.36246 10.13 6.48297 10.3756 6.48297C10.5916 6.48297 10.8833 6.36722 11.2232 6.23232C11.7586 6.01983 12.4137 5.75982 13.0813 5.8299C13.5929 5.8459 14.0938 5.98099 14.544 6.22442C14.9943 6.46786 15.3817 6.81294 15.6753 7.23225C15.2131 7.51638 14.8303 7.9128 14.5625 8.38462Z" fill="black"/>
</g>
</g>
</svg>
