<svg width="38" height="38" viewBox="0 0 38 38" fill="none" xmlns="http://www.w3.org/2000/svg">
<rect x="0.339286" y="0.339286" width="37.3214" height="37.3214" rx="5.08929" fill="#1A1A1A"/>
<rect x="0.339286" y="0.339286" width="37.3214" height="37.3214" rx="5.08929" stroke="#262626" stroke-width="0.678571"/>
<g clip-path="url(#clip0_3912_16334)">
<path d="M27.1429 19.0003C27.1429 14.5031 23.4972 10.8574 19 10.8574C14.5028 10.8574 10.8571 14.5031 10.8571 19.0003C10.8571 23.0646 13.8349 26.4333 17.7277 27.0442V21.3541H15.6602V19.0003H17.7277V17.2063C17.7277 15.1655 18.9434 14.0382 20.8034 14.0382C21.694 14.0382 22.6261 14.1973 22.6261 14.1973V16.2012H21.5994C20.5879 16.2012 20.2723 16.8289 20.2723 17.4735V19.0003H22.5307L22.1697 21.3541H20.2723V27.0442C24.1652 26.4333 27.1429 23.0646 27.1429 19.0003Z" fill="white"/>
</g>
<defs>
<clipPath id="clip0_3912_16334">
<rect width="16.2857" height="16.2857" fill="white" transform="translate(10.8571 10.8574)"/>
</clipPath>
</defs>
</svg>
