<svg width="38" height="38" viewBox="0 0 38 38" fill="none" xmlns="http://www.w3.org/2000/svg">
<rect x="0.339286" y="0.481864" width="37.0357" height="37.0357" rx="5.08929" fill="#1A1A1A"/>
<rect x="0.339286" y="0.481864" width="37.0357" height="37.0357" rx="5.08929" stroke="#262626" stroke-width="0.678571"/>
<path fill-rule="evenodd" clip-rule="evenodd" d="M13.2092 16.1299C12.979 16.2737 12.7893 16.4737 12.6577 16.7111C12.5262 16.9484 12.4572 17.2154 12.4572 17.4867V23.8003C12.4572 24.2247 12.6257 24.6316 12.9258 24.9317C13.2258 25.2318 13.6328 25.4003 14.0572 25.4003H23.6572C24.0815 25.4003 24.4885 25.2318 24.7885 24.9317C25.0886 24.6316 25.2572 24.2247 25.2572 23.8003V17.4867C25.2572 17.2154 25.1881 16.9484 25.0566 16.7111C24.925 16.4737 24.7353 16.2737 24.5052 16.1299L19.7052 13.1299C19.4509 12.971 19.157 12.8867 18.8572 12.8867C18.5573 12.8867 18.2634 12.971 18.0092 13.1299L13.2092 16.1299ZM15.3012 18.0683C15.2137 18.01 15.1157 17.9695 15.0126 17.9491C14.9096 17.9287 14.8035 17.9287 14.7005 17.9493C14.5974 17.9699 14.4994 18.0106 14.4121 18.069C14.3248 18.1274 14.2499 18.2025 14.1916 18.2899C14.1332 18.3773 14.0927 18.4754 14.0723 18.5784C14.0519 18.6815 14.052 18.7876 14.0725 18.8906C14.1141 19.0987 14.2366 19.2818 14.4132 19.3995L18.4132 22.0659C18.5446 22.1536 18.6991 22.2004 18.8572 22.2004C19.0152 22.2004 19.1697 22.1536 19.3012 22.0659L23.3012 19.3995C23.4777 19.2818 23.6002 19.0987 23.6418 18.8906C23.6833 18.6825 23.6405 18.4665 23.5228 18.2899C23.405 18.1134 23.2219 17.9909 23.0138 17.9493C22.8058 17.9078 22.5897 17.9506 22.4132 18.0683L18.8572 20.4387L15.3012 18.0683Z" fill="white"/>
</svg>
