<svg width="39" height="40" viewBox="0 0 39 40" fill="none" xmlns="http://www.w3.org/2000/svg">
<rect x="0.339286" y="1.14886" width="37.7024" height="37.7024" rx="5.08929" fill="#1A1A1A"/>
<rect x="0.339286" y="1.14886" width="37.7024" height="37.7024" rx="5.08929" stroke="#262626" stroke-width="0.678571"/>
<path fill-rule="evenodd" clip-rule="evenodd" d="M15.7547 11.717C16.6436 11.6767 16.9273 11.667 19.1905 11.667C21.4537 11.667 21.7374 11.6767 22.6262 11.717C23.9811 11.7788 25.1703 12.1107 26.1252 13.0656C27.0804 14.0208 27.412 15.2104 27.4738 16.5646C27.5141 17.4535 27.5238 17.7371 27.5238 20.0003C27.5238 22.2635 27.5141 22.5472 27.4738 23.4361C27.412 24.791 27.0801 25.9802 26.1252 26.935C25.17 27.8903 23.9801 28.2219 22.6262 28.2837C21.7374 28.3239 21.4537 28.3337 19.1905 28.3337C16.9273 28.3337 16.6436 28.3239 15.7547 28.2837C14.3999 28.2219 13.2106 27.8899 12.2558 26.935C11.3005 25.9798 10.969 24.7903 10.9071 23.4361C10.8669 22.5472 10.8571 22.2635 10.8571 20.0003C10.8571 17.7371 10.8669 17.4535 10.9071 16.5646C10.969 15.2097 11.3009 14.0205 12.2558 13.0656C13.211 12.1104 14.4006 11.7788 15.7547 11.717ZM19.1905 14.4448C17.6818 14.4448 17.4926 14.451 16.8999 14.4781C15.9971 14.5194 15.204 14.7406 14.5672 15.3771C13.9308 16.0135 13.7096 16.8066 13.6683 17.7097C13.6412 18.3024 13.6349 18.4916 13.6349 20.0003C13.6349 21.509 13.6412 21.6982 13.6683 22.291C13.7096 23.1937 13.9308 23.9868 14.5672 24.6236C15.2037 25.26 15.9967 25.4812 16.8999 25.5225C17.4926 25.5496 17.6818 25.5559 19.1905 25.5559C20.6992 25.5559 20.8884 25.5496 21.4811 25.5225C22.3839 25.4812 23.1769 25.26 23.8137 24.6236C24.4502 23.9871 24.6714 23.1941 24.7127 22.291C24.7398 21.6982 24.746 21.509 24.746 20.0003C24.746 18.4916 24.7398 18.3024 24.7127 17.7097C24.6714 16.8069 24.4502 16.0139 23.8137 15.3771C23.1773 14.7406 22.3842 14.5194 21.4811 14.4781C20.8884 14.451 20.6992 14.4448 19.1905 14.4448ZM19.1905 15.4458C20.6738 15.4458 20.8495 15.4514 21.4353 15.4781C22.0676 15.5069 22.6544 15.6337 23.1058 16.085C23.5571 16.5364 23.6839 17.1232 23.7127 17.7555C23.7394 18.3413 23.745 18.517 23.745 20.0003C23.745 21.4837 23.7394 21.6594 23.7127 22.2451C23.6839 22.8774 23.5571 23.4642 23.1058 23.9156C22.6544 24.367 22.0676 24.4937 21.4353 24.5225C20.8495 24.5493 20.6738 24.5548 19.1905 24.5548C17.7071 24.5548 17.5315 24.5493 16.9457 24.5225C16.3134 24.4937 15.7266 24.367 15.2752 23.9156C14.8238 23.4642 14.6971 22.8774 14.6683 22.2451C14.6415 21.6594 14.636 21.4837 14.636 20.0003C14.636 18.517 14.6415 18.3413 14.6683 17.7555C14.6971 17.1232 14.8238 16.5364 15.2752 16.085C15.7266 15.6337 16.3134 15.5069 16.9457 15.4781C17.5315 15.4514 17.7071 15.4458 19.1905 15.4458ZM16.3377 20.0003C16.3377 18.425 17.6148 17.1475 19.1905 17.1475C20.7662 17.1475 22.0433 18.425 22.0433 20.0003C22.0433 21.5757 20.7658 22.8531 19.1905 22.8531C17.6151 22.8531 16.3377 21.5757 16.3377 20.0003ZM17.3387 20.0003C17.3387 21.0229 18.1676 21.8521 19.1905 21.8521C20.2134 21.8521 21.0422 21.0232 21.0422 20.0003C21.0422 18.9778 20.2134 18.1486 19.1905 18.1486C18.1679 18.1486 17.3387 18.9774 17.3387 20.0003ZM22.1561 17.7014C22.5243 17.7014 22.8228 17.4029 22.8228 17.0347C22.8228 16.6665 22.5243 16.368 22.1561 16.368C21.7879 16.368 21.4894 16.6665 21.4894 17.0347C21.4894 17.4029 21.7879 17.7014 22.1561 17.7014Z" fill="white"/>
</svg>
