<svg width="38" height="38" viewBox="0 0 38 38" fill="none" xmlns="http://www.w3.org/2000/svg">
<rect x="0.339286" y="0.481864" width="37.0357" height="37.0357" rx="5.08929" fill="#1A1A1A"/>
<rect x="0.339286" y="0.481864" width="37.0357" height="37.0357" rx="5.08929" stroke="#262626" stroke-width="0.678571"/>
<path d="M13.2477 13.3905C12.9976 13.6406 12.8571 13.9797 12.8571 14.3333V15C12.8571 20.5227 17.3345 25 22.8571 25H23.5238C23.8774 25 24.2166 24.8595 24.4666 24.6095C24.7167 24.3594 24.8571 24.0203 24.8571 23.6667V21.4807C24.8572 21.3407 24.8132 21.2043 24.7313 21.0907C24.6495 20.9771 24.534 20.8922 24.4011 20.848L21.4058 19.8493C21.2536 19.7987 21.0882 19.8047 20.9401 19.8662C20.7919 19.9277 20.6708 20.0405 20.5991 20.184L19.8458 21.6887C18.2135 20.9511 16.906 19.6437 16.1685 18.0113L17.6731 17.258C17.8166 17.1863 17.9295 17.0653 17.991 16.9171C18.0524 16.7689 18.0584 16.6036 18.0078 16.4513L17.0091 13.456C16.965 13.3233 16.8801 13.2079 16.7667 13.126C16.6533 13.0442 16.517 13.0001 16.3771 13H14.1905C13.8369 13 13.4977 13.1405 13.2477 13.3905Z" fill="white"/>
</svg>
