<svg width="253" height="203" viewBox="0 0 253 203" fill="none" xmlns="http://www.w3.org/2000/svg">
<path fill-rule="evenodd" clip-rule="evenodd" d="M152.644 136.05H60.552C56.6396 136.05 53.468 132.869 53.468 128.945C53.468 125.021 56.6396 121.84 60.552 121.84H21.084C17.1716 121.84 14 118.659 14 114.735C14 110.811 17.1716 107.63 21.084 107.63H61.564C65.4764 107.63 68.648 104.449 68.648 100.525C68.648 96.601 65.4764 93.42 61.564 93.42H36.264C32.3516 93.42 29.18 90.239 29.18 86.315C29.18 82.391 32.3516 79.21 36.264 79.21H76.744C72.8316 79.21 69.66 76.029 69.66 72.105C69.66 68.181 72.8316 65 76.744 65H134.428C138.34 65 141.512 68.181 141.512 72.105C141.512 76.029 138.34 79.21 134.428 79.21H199.196C203.108 79.21 206.28 82.391 206.28 86.315C206.28 90.239 203.108 93.42 199.196 93.42H221.46C225.372 93.42 228.544 96.601 228.544 100.525C228.544 104.449 225.372 107.63 221.46 107.63H202.232C198.32 107.63 195.148 110.811 195.148 114.735C195.148 118.659 198.32 121.84 202.232 121.84H208.304C212.216 121.84 215.388 125.021 215.388 128.945C215.388 132.869 212.216 136.05 208.304 136.05H155.68C155.159 136.05 154.651 135.994 154.162 135.886C153.673 135.994 153.165 136.05 152.644 136.05Z" fill="white" fill-opacity="0.1"/>
<ellipse cx="229.084" cy="129.105" rx="7.084" ry="7.105" fill="white" fill-opacity="0.1"/>
<path d="M169.004 144H191.701M64.768 144H86.4795H64.768ZM51.7415 144H58.696H51.7415ZM196.457 144H199.364H196.457Z" stroke="#9CA3AF" stroke-width="2.5" stroke-linecap="round" stroke-linejoin="round"/>
<path d="M99.176 43.9522L110.409 56.5922M151.901 43.9522L140.668 56.5922L151.901 43.9522ZM125.488 39.585V56.5922V39.585Z" stroke="#9CA3AF" stroke-width="2.5" stroke-linecap="round" stroke-linejoin="round"/>
<path d="M146.694 79.4016L151.704 83.17H99.7728L105.385 79.4176L105.831 79.1195L105.502 78.6956L100.697 72.5H150.716L146.578 78.7252L146.317 79.118L146.694 79.4016Z" fill="white" fill-opacity="0.1" stroke="#9CA3AF"/>
<rect x="97.0244" y="82.4912" width="57.9396" height="61.4447" rx="1.5" fill="white" fill-opacity="0.1" stroke="#9CA3AF"/>
<path fill-rule="evenodd" clip-rule="evenodd" d="M100.331 116.132V87.5238C100.331 86.3452 101.294 85.3896 102.482 85.3896L153.101 138.744C153.101 140.316 151.846 141.59 150.299 141.59H103.132C101.585 141.59 100.331 140.316 100.331 138.744V128.112V125.228V116.132ZM100.331 122.309V119.105V122.309Z" fill="white" fill-opacity="0.1"/>
<path d="M97.3545 116.514V85.2266C97.3545 83.9375 98.4092 82.8926 99.7102 82.8926H153.605C154.453 82.8926 155.139 83.5892 155.139 84.4486V141.243C155.139 142.961 153.766 144.355 152.072 144.355H100.422C98.728 144.355 97.3545 142.961 97.3545 141.243V129.615V126.461M97.3545 123.269V119.765" stroke="#9CA3AF" stroke-width="2.5" stroke-linecap="round"/>
<path d="M98.9012 82.8926V73.5566C98.9012 72.6972 99.5245 72.0006 100.293 72.0006H151.808C152.577 72.0006 153.2 72.6972 153.2 73.5566V82.8926" stroke="#9CA3AF" stroke-width="2.5"/>
<path d="M113.252 99.2302C114.751 99.2302 115.967 98.011 115.967 96.5072C115.967 95.0033 114.751 93.7842 113.252 93.7842C111.752 93.7842 110.537 95.0033 110.537 96.5072C110.537 98.011 111.752 99.2302 113.252 99.2302Z" fill="white" fill-opacity="0.1" stroke="#9CA3AF" stroke-width="2.5" stroke-linecap="round"/>
<path d="M138.849 99.2302C140.349 99.2302 141.564 98.011 141.564 96.5072C141.564 95.0033 140.349 93.7842 138.849 93.7842C137.35 93.7842 136.135 95.0033 136.135 96.5072C136.135 98.011 137.35 99.2302 138.849 99.2302Z" fill="white" fill-opacity="0.1" stroke="#9CA3AF" stroke-width="2.5" stroke-linecap="round"/>
<path d="M138.462 99.2297C138.462 106.105 132.905 111.678 126.051 111.678C119.196 111.678 113.639 106.105 113.639 99.2297" stroke="#9CA3AF" stroke-width="2.5" stroke-linecap="round"/>
<path d="M99.7242 72.7754L105.185 78.182C105.511 78.505 105.515 79.0322 105.193 79.3594C105.137 79.4161 105.073 79.4644 105.004 79.5029L98.9011 82.8919" stroke="#9CA3AF" stroke-width="2.5" stroke-linecap="round"/>
<path d="M152.509 72.832L147.283 78.1777C146.962 78.506 146.967 79.0332 147.295 79.3551C147.349 79.4088 147.411 79.4547 147.478 79.4915L153.694 82.8921" stroke="#9CA3AF" stroke-width="2.5" stroke-linecap="round"/>
</svg>
