<svg width="253" height="203" viewBox="0 0 253 203" fill="none" xmlns="http://www.w3.org/2000/svg">
<path fill-rule="evenodd" clip-rule="evenodd" d="M152.644 136.05H60.552C56.6396 136.05 53.468 132.869 53.468 128.945C53.468 125.021 56.6396 121.84 60.552 121.84H21.084C17.1716 121.84 14 118.659 14 114.735C14 110.811 17.1716 107.63 21.084 107.63H61.564C65.4764 107.63 68.648 104.449 68.648 100.525C68.648 96.601 65.4764 93.42 61.564 93.42H36.264C32.3516 93.42 29.18 90.239 29.18 86.315C29.18 82.391 32.3516 79.21 36.264 79.21H76.744C72.8316 79.21 69.66 76.029 69.66 72.105C69.66 68.181 72.8316 65 76.744 65H134.428C138.34 65 141.512 68.181 141.512 72.105C141.512 76.029 138.34 79.21 134.428 79.21H199.196C203.108 79.21 206.28 82.391 206.28 86.315C206.28 90.239 203.108 93.42 199.196 93.42H221.46C225.372 93.42 228.544 96.601 228.544 100.525C228.544 104.449 225.372 107.63 221.46 107.63H202.232C198.32 107.63 195.148 110.811 195.148 114.735C195.148 118.659 198.32 121.84 202.232 121.84H208.304C212.216 121.84 215.388 125.021 215.388 128.945C215.388 132.869 212.216 136.05 208.304 136.05H155.68C155.159 136.05 154.651 135.994 154.162 135.886C153.673 135.994 153.165 136.05 152.644 136.05Z" fill="#E7E7E7" fill-opacity="0.1"/>
<ellipse cx="229.084" cy="129.105" rx="7.084" ry="7.105" fill="white" fill-opacity="0.1"/>
<path d="M120.5 133C139.002 133 154 118.002 154 99.5C154 80.9985 139.002 66 120.5 66C101.998 66 87 80.9985 87 99.5C87 118.002 101.998 133 120.5 133Z" fill="#F3F7FF" fill-opacity="0.1" stroke="#9CA3AF" stroke-width="2.5"/>
<path fill-rule="evenodd" clip-rule="evenodd" d="M115.132 125.494C116.891 125.819 118.68 125.987 120.5 126C135.136 126 147 114.136 147 99.5C147 84.8645 135.136 73 120.5 73C116.74 73 113.164 73.7829 109.924 75.1946C104.294 77.6479 99.6816 81.9999 96.896 87.4419C95.0445 91.0589 94 95.1575 94 99.5C94 103.44 94.8599 107.179 96.4021 110.54C97.5032 112.94 98.9521 115.146 100.684 117.096" fill="white" fill-opacity="0.1"/>
<path d="M115.132 125.494C116.891 125.819 118.68 125.987 120.5 126C135.136 126 147 114.136 147 99.5C147 84.8645 135.136 73 120.5 73C116.74 73 113.164 73.7829 109.924 75.1946C104.294 77.6479 99.6816 81.9999 96.896 87.4419C95.0445 91.0589 94 95.1575 94 99.5C94 103.44 94.8599 107.179 96.4021 110.54C97.5032 112.94 98.9521 115.146 100.684 117.096" stroke="#9CA3AF" stroke-width="2.5" stroke-linecap="round"/>
<path d="M103.797 120.075C105.945 121.821 108.372 123.237 111.001 124.247" stroke="#9CA3AF" stroke-width="2.5" stroke-linecap="round"/>
<path d="M148 126L154 132" stroke="#9CA3AF" stroke-width="2.5"/>
<path fill-rule="evenodd" clip-rule="evenodd" d="M153.03 131.03C151.138 132.923 151.138 135.991 153.03 137.884L164.116 148.969C166.008 150.862 169.077 150.862 170.97 148.969C172.863 147.077 172.863 144.008 170.97 142.115L159.885 131.03C157.992 129.137 154.923 129.137 153.03 131.03Z" fill="white" fill-opacity="0.1" stroke="#9CA3AF" stroke-width="2.5"/>
<path d="M158 133L169 144" stroke="#FFFBFB" stroke-opacity="0.1" stroke-width="2.5" stroke-linecap="round"/>
<path fill-rule="evenodd" clip-rule="evenodd" d="M114 88.0005C114 99.5985 123.402 109.001 135 109.001C137.278 109.001 139.472 108.638 141.526 107.967C138.173 116.288 130.023 122.161 120.5 122.161C107.985 122.161 97.8394 112.016 97.8394 99.5005C97.8394 88.1601 106.17 78.7653 117.045 77.1016C115.113 80.2798 114 84.0102 114 88.0005Z" fill="white" fill-opacity="0.1"/>
<path d="M121 81C119.727 81 118.482 81.1253 117.279 81.3642M113.645 82.4761C106.804 85.3508 102 92.1144 102 100" stroke="#9CA3AF" stroke-width="2.5" stroke-linecap="round"/>
<path d="M180.5 92H163.324M187.5 92H185.279M174.176 99.7773H166" stroke="#9CA3AF" stroke-width="2.5" stroke-linecap="round" stroke-linejoin="round"/>
<path d="M84.1758 121.777H76M79.5 113H62.3242H79.5ZM56.5 113H52.2788H56.5Z" stroke="#9CA3AF" stroke-width="2.5" stroke-linecap="round" stroke-linejoin="round"/>
</svg>
