<svg width="253" height="203" viewBox="0 0 253 203" fill="none" xmlns="http://www.w3.org/2000/svg">
<path fill-rule="evenodd" clip-rule="evenodd" d="M152.644 136.05H60.552C56.6396 136.05 53.468 132.869 53.468 128.945C53.468 125.021 56.6396 121.84 60.552 121.84H21.084C17.1716 121.84 14 118.659 14 114.735C14 110.811 17.1716 107.63 21.084 107.63H61.564C65.4764 107.63 68.648 104.449 68.648 100.525C68.648 96.601 65.4764 93.42 61.564 93.42H36.264C32.3516 93.42 29.18 90.239 29.18 86.315C29.18 82.391 32.3516 79.21 36.264 79.21H76.744C72.8316 79.21 69.66 76.029 69.66 72.105C69.66 68.181 72.8316 65 76.744 65H134.428C138.34 65 141.512 68.181 141.512 72.105C141.512 76.029 138.34 79.21 134.428 79.21H199.196C203.108 79.21 206.28 82.391 206.28 86.315C206.28 90.239 203.108 93.42 199.196 93.42H221.46C225.372 93.42 228.544 96.601 228.544 100.525C228.544 104.449 225.372 107.63 221.46 107.63H202.232C198.32 107.63 195.148 110.811 195.148 114.735C195.148 118.659 198.32 121.84 202.232 121.84H208.304C212.216 121.84 215.388 125.021 215.388 128.945C215.388 132.869 212.216 136.05 208.304 136.05H155.68C155.159 136.05 154.651 135.994 154.162 135.886C153.673 135.994 153.165 136.05 152.644 136.05Z" fill="#E7E7E7" fill-opacity="0.1"/>
<ellipse cx="229.084" cy="129.105" rx="7.084" ry="7.105" fill="#3D545D"/>
<path fill-rule="evenodd" clip-rule="evenodd" d="M113.119 112.307C113.04 112.86 113 113.425 113 114C113 120.627 118.373 126 125 126C131.627 126 137 120.627 137 114C137 113.425 136.96 112.86 136.881 112.307H166V139C166 140.657 164.657 142 163 142H87C85.3431 142 84 140.657 84 139V112.307H113.119Z" fill="white" fill-opacity="0.1"/>
<path fill-rule="evenodd" clip-rule="evenodd" d="M138 112C138 119.18 132.18 125 125 125C117.82 125 112 119.18 112 112C112 111.767 112.006 111.536 112.018 111.307H84L93.5604 83.0389C93.9726 81.8202 95.1159 81 96.4023 81H153.598C154.884 81 156.027 81.8202 156.44 83.0389L166 111.307H137.982C137.994 111.536 138 111.767 138 112Z" fill="white" fill-opacity="0.1"/>
<path fill-rule="evenodd" clip-rule="evenodd" d="M136.098 112.955C136.098 118.502 131.129 124 125 124C118.871 124 113.902 118.502 113.902 112.955C113.902 112.775 113.908 111.596 113.918 111.419H93L101.161 91.5755C101.513 90.6338 102.489 90 103.587 90H146.413C147.511 90 148.487 90.6338 148.839 91.5755L157 111.419H136.082C136.092 111.596 136.098 112.775 136.098 112.955Z" fill="white" fill-opacity="0.1"/>
<path fill-rule="evenodd" clip-rule="evenodd" d="M85.25 111.512V138C85.25 138.966 86.0335 139.75 87 139.75H163C163.966 139.75 164.75 138.966 164.75 138V111.512L155.255 83.4393C155.015 82.7285 154.348 82.25 153.598 82.25H96.4023C95.6519 82.25 94.985 82.7285 94.7446 83.4393L85.25 111.512Z" stroke="#9CA3AF" stroke-width="2.5"/>
<path d="M98 111C101.937 111 106.185 111 110.745 111C112.621 111 112.621 112.319 112.621 113C112.621 119.627 118.117 125 124.897 125C131.677 125 137.173 119.627 137.173 113C137.173 112.319 137.173 111 139.05 111H164M90.5737 111H93H90.5737Z" stroke="#9CA3AF" stroke-width="2.5" stroke-linecap="round" stroke-linejoin="round"/>
<path d="M150.1 58.3027L139 70.7559M124.1 54V70.7559V54ZM98 58.3027L109.1 70.7559L98 58.3027Z" stroke="#9CA3AF" stroke-width="2.5" stroke-linecap="round" stroke-linejoin="round"/>
</svg>
