<svg width="21" height="20" viewBox="0 0 21 20" fill="none" xmlns="http://www.w3.org/2000/svg">
<g id="Facebook">
<path id="Vector" d="M9.25 17.4167C5.70833 16.7917 3 13.7083 3 10C3 5.875 6.375 2.5 10.5 2.5C14.625 2.5 18 5.875 18 10C18 13.7083 15.2917 16.7917 11.75 17.4167L11.3333 17.0833H9.66667L9.25 17.4167Z" fill="url(#paint0_linear_186_790)"/>
<path id="Vector_2" d="M13.4167 12.0837L13.75 10.0003H11.75V8.54199C11.75 7.95866 11.9583 7.50033 12.875 7.50033H13.8333V5.58366C13.2917 5.50033 12.7083 5.41699 12.1667 5.41699C10.4583 5.41699 9.25 6.45866 9.25 8.33366V10.0003H7.375V12.0837H9.25V17.3753C9.66667 17.4587 10.0833 17.5003 10.5 17.5003C10.9167 17.5003 11.3333 17.4587 11.75 17.3753V12.0837H13.4167Z" fill="white"/>
</g>
<defs>
<linearGradient id="paint0_linear_186_790" x1="10.5" y1="16.9808" x2="10.5" y2="2.5" gradientUnits="userSpaceOnUse">
<stop stop-color="#0062E0"/>
<stop offset="1" stop-color="#19AFFF"/>
</linearGradient>
</defs>
</svg>
