<svg xmlns="http://www.w3.org/2000/svg" width="40" height="40" fill="none" viewBox="0 0 40 40">
  <rect width="40" height="40" fill="#fff" fill-opacity=".12" rx="20"/>
  <path stroke="#F9FAFB" stroke-linecap="round" stroke-linejoin="round" stroke-width="1.5" d="M20 29a9.004 9.004 0 0 0 8.716-6.747M20 29a9.004 9.004 0 0 1-8.716-6.747M20 29c2.485 0 4.5-4.03 4.5-9s-2.015-9-4.5-9m0 18c-2.485 0-4.5-4.03-4.5-9s2.015-9 4.5-9m8.716 11.253a9.043 9.043 0 0 0-.873-6.671m.873 6.671A17.918 17.918 0 0 1 20 24.5a17.92 17.92 0 0 1-8.716-2.247m0 0A9.016 9.016 0 0 1 11 20c0-1.605.42-3.113 1.157-4.418M20 11a8.997 8.997 0 0 1 7.843 4.582M20 11a8.997 8.997 0 0 0-7.843 4.582m15.686 0A11.953 11.953 0 0 1 20 18.5c-2.998 0-5.74-1.1-7.843-2.918"/>
</svg>
