<svg width="16" height="16" viewBox="0 0 16 16" fill="none" xmlns="http://www.w3.org/2000/svg">
<path fill-rule="evenodd" clip-rule="evenodd" d="M14.8 8.16176C14.8 7.65948 14.7549 7.17653 14.6712 6.71289H8V9.45286H11.8121C11.6479 10.3383 11.1489 11.0885 10.3987 11.5907V13.368H12.6879C14.0273 12.1349 14.8 10.319 14.8 8.16176Z" fill="#4285F4"/>
<path fill-rule="evenodd" clip-rule="evenodd" d="M7.99986 15.0832C9.91236 15.0832 11.5158 14.4489 12.6877 13.3671L10.3985 11.5898C9.76425 12.0148 8.95289 12.266 7.99986 12.266C6.15497 12.266 4.59341 11.0199 4.0364 9.3457H1.66992V11.1809C2.83545 13.4959 5.23091 15.0832 7.99986 15.0832Z" fill="#34A853"/>
<path fill-rule="evenodd" clip-rule="evenodd" d="M4.0364 9.34624C3.89473 8.92124 3.81424 8.46726 3.81424 8.0004C3.81424 7.53354 3.89473 7.07957 4.0364 6.65457V4.81934H1.66991C1.19018 5.77559 0.916504 6.85741 0.916504 8.0004C0.916504 9.1434 1.19018 10.2252 1.66991 11.1815L4.0364 9.34624Z" fill="#FBBC05"/>
<path fill-rule="evenodd" clip-rule="evenodd" d="M7.99986 3.73423C9.03982 3.73423 9.97353 4.09162 10.7076 4.79351L12.7393 2.76188C11.5126 1.61889 9.90914 0.916992 7.99986 0.916992C5.23091 0.916992 2.83545 2.50431 1.66992 4.81927L4.0364 6.6545C4.59341 4.98026 6.15497 3.73423 7.99986 3.73423Z" fill="#EA4335"/>
</svg>
