<svg width="27" height="26" viewBox="0 0 27 26" fill="none" xmlns="http://www.w3.org/2000/svg">
<path d="M23.781 9.52799L22.3246 4.42854C22.2267 4.09025 22.0219 3.79272 21.7409 3.58038C21.4599 3.36805 21.1178 3.25229 20.7656 3.25041H5.73438C5.38219 3.25229 5.04007 3.36805 4.75909 3.58038C4.47811 3.79272 4.27335 4.09025 4.17539 4.42854L2.71898 9.52799C2.69816 9.6003 2.68757 9.67517 2.6875 9.75041V11.3754C2.6875 12.0061 2.83434 12.6281 3.11639 13.1922C3.39844 13.7563 3.80795 14.247 4.3125 14.6254V21.9379C4.3125 22.1534 4.3981 22.3601 4.55048 22.5124C4.70285 22.6648 4.90951 22.7504 5.125 22.7504H21.375C21.5905 22.7504 21.7972 22.6648 21.9495 22.5124C22.1019 22.3601 22.1875 22.1534 22.1875 21.9379V14.6254C22.692 14.247 23.1016 13.7563 23.3836 13.1922C23.6657 12.6281 23.8125 12.0061 23.8125 11.3754V9.75041C23.8124 9.67517 23.8018 9.6003 23.781 9.52799ZM9.1875 11.3754C9.18735 11.7946 9.07912 12.2066 8.87326 12.5717C8.66739 12.9368 8.37085 13.2427 8.01228 13.4598C7.65371 13.6768 7.24522 13.7977 6.82627 13.8109C6.40733 13.824 5.99207 13.7288 5.62063 13.5346C5.56411 13.4906 5.50194 13.4544 5.43578 13.427C5.09156 13.2066 4.80828 12.9032 4.61199 12.5447C4.41571 12.1862 4.31272 11.7841 4.3125 11.3754V10.5629H9.1875V11.3754ZM15.6875 11.3754C15.6875 12.0219 15.4307 12.6419 14.9736 13.099C14.5165 13.5561 13.8965 13.8129 13.25 13.8129C12.6035 13.8129 11.9835 13.5561 11.5264 13.099C11.0693 12.6419 10.8125 12.0219 10.8125 11.3754V10.5629H15.6875V11.3754ZM22.1875 11.3754C22.1872 11.7842 22.084 12.1864 21.8876 12.5449C21.6911 12.9034 21.4076 13.2067 21.0632 13.427C20.9979 13.4545 20.9365 13.4903 20.8804 13.5336C20.509 13.728 20.0937 13.8234 19.6747 13.8104C19.2557 13.7975 18.8471 13.6767 18.4884 13.4597C18.1297 13.2427 17.8331 12.9369 17.6271 12.5718C17.4211 12.2067 17.3127 11.7946 17.3125 11.3754V10.5629H22.1875V11.3754Z" fill="#F9FAFB"/>
</svg>
