<svg width="27" height="26" viewBox="0 0 27 26" fill="none" xmlns="http://www.w3.org/2000/svg">
<path d="M24.3333 13C24.3333 7.03082 19.4692 2.16666 13.5 2.16666C7.53082 2.16666 2.66666 7.03082 2.66666 13C2.66666 16.1417 4.02082 18.9692 6.16582 20.9517C6.16582 20.9625 6.16582 20.9625 6.15499 20.9733C6.26332 21.0817 6.39332 21.1683 6.50166 21.2658C6.56666 21.32 6.62082 21.3742 6.68582 21.4175C6.88082 21.58 7.09749 21.7317 7.30332 21.8833C7.37916 21.9375 7.44416 21.9808 7.51999 22.035C7.72582 22.1758 7.94249 22.3058 8.16999 22.425C8.24582 22.4683 8.33249 22.5225 8.40832 22.5658C8.62499 22.685 8.85249 22.7933 9.09082 22.8908C9.17749 22.9342 9.26416 22.9775 9.35082 23.01C9.58916 23.1075 9.82749 23.1942 10.0658 23.27C10.1525 23.3025 10.2392 23.335 10.3258 23.3567C10.5858 23.4325 10.8458 23.4975 11.1058 23.5625C11.1817 23.5842 11.2575 23.6058 11.3442 23.6167C11.6475 23.6817 11.9508 23.725 12.265 23.7575C12.3083 23.7575 12.3517 23.7683 12.395 23.7792C12.7633 23.8117 13.1317 23.8333 13.5 23.8333C13.8683 23.8333 14.2367 23.8117 14.5942 23.7792C14.6375 23.7792 14.6808 23.7683 14.7242 23.7575C15.0383 23.725 15.3417 23.6817 15.645 23.6167C15.7208 23.6058 15.7967 23.5733 15.8833 23.5625C16.1433 23.4975 16.4142 23.4433 16.6633 23.3567C16.75 23.3242 16.8367 23.2917 16.9233 23.27C17.1617 23.1833 17.4108 23.1075 17.6383 23.01C17.725 22.9775 17.8117 22.9342 17.8983 22.8908C18.1258 22.7933 18.3533 22.685 18.5808 22.5658C18.6675 22.5225 18.7433 22.4683 18.8192 22.425C19.0358 22.295 19.2525 22.1758 19.4692 22.035C19.545 21.9917 19.61 21.9375 19.6858 21.8833C19.9025 21.7317 20.1083 21.58 20.3033 21.4175C20.3683 21.3633 20.4225 21.3092 20.4875 21.2658C20.6067 21.1683 20.7258 21.0708 20.8342 20.9733C20.8342 20.9625 20.8342 20.9625 20.8233 20.9517C22.9792 18.9692 24.3333 16.1417 24.3333 13ZM18.8517 18.3842C15.9158 16.4125 11.1058 16.4125 8.14832 18.3842C7.67166 18.6983 7.28166 19.0667 6.95666 19.4675C5.30999 17.7992 4.29166 15.5133 4.29166 13C4.29166 7.91916 8.41916 3.79166 13.5 3.79166C18.5808 3.79166 22.7083 7.91916 22.7083 13C22.7083 15.5133 21.69 17.7992 20.0433 19.4675C19.7292 19.0667 19.3283 18.6983 18.8517 18.3842Z" fill="url(#paint0_linear_8439_11970)"/>
<path d="M13.5 7.50751C11.2575 7.50751 9.4375 9.32751 9.4375 11.57C9.4375 13.7692 11.16 15.5567 13.4458 15.6217C13.4783 15.6217 13.5217 15.6217 13.5433 15.6217C13.565 15.6217 13.5975 15.6217 13.6192 15.6217C13.63 15.6217 13.6408 15.6217 13.6408 15.6217C15.8292 15.5458 17.5517 13.7692 17.5625 11.57C17.5625 9.32751 15.7425 7.50751 13.5 7.50751Z" fill="url(#paint1_linear_8439_11970)"/>
<defs>
<linearGradient id="paint0_linear_8439_11970" x1="-0.233606" y1="-9.92834e-06" x2="27.3599" y2="4.78931" gradientUnits="userSpaceOnUse">
<stop offset="0.0673077" stop-color="#6BE3D7"/>
<stop offset="0.567308" stop-color="#EEA2F5"/>
<stop offset="1" stop-color="#F6CAB3"/>
</linearGradient>
<linearGradient id="paint1_linear_8439_11970" x1="8.3499" y1="6.69609" x2="18.6967" y2="8.49434" gradientUnits="userSpaceOnUse">
<stop offset="0.0673077" stop-color="#6BE3D7"/>
<stop offset="0.567308" stop-color="#EEA2F5"/>
<stop offset="1" stop-color="#F6CAB3"/>
</linearGradient>
</defs>
</svg>
