<svg width="27" height="27" viewBox="0 0 27 27" fill="none" xmlns="http://www.w3.org/2000/svg">
<path d="M24.3333 13.5C24.3333 7.53085 19.4692 2.66669 13.5 2.66669C7.53082 2.66669 2.66666 7.53085 2.66666 13.5C2.66666 16.6417 4.02082 19.4692 6.16582 21.4517C6.16582 21.4625 6.16582 21.4625 6.15499 21.4734C6.26332 21.5817 6.39332 21.6684 6.50166 21.7659C6.56666 21.82 6.62082 21.8742 6.68582 21.9175C6.88082 22.08 7.09749 22.2317 7.30332 22.3834C7.37916 22.4375 7.44416 22.4809 7.51999 22.535C7.72582 22.6759 7.94249 22.8059 8.16999 22.925C8.24582 22.9684 8.33249 23.0225 8.40832 23.0659C8.62499 23.185 8.85249 23.2934 9.09082 23.3909C9.17749 23.4342 9.26416 23.4775 9.35082 23.51C9.58916 23.6075 9.82749 23.6942 10.0658 23.77C10.1525 23.8025 10.2392 23.835 10.3258 23.8567C10.5858 23.9325 10.8458 23.9975 11.1058 24.0625C11.1817 24.0842 11.2575 24.1059 11.3442 24.1167C11.6475 24.1817 11.9508 24.225 12.265 24.2575C12.3083 24.2575 12.3517 24.2684 12.395 24.2792C12.7633 24.3117 13.1317 24.3334 13.5 24.3334C13.8683 24.3334 14.2367 24.3117 14.5942 24.2792C14.6375 24.2792 14.6808 24.2684 14.7242 24.2575C15.0383 24.225 15.3417 24.1817 15.645 24.1167C15.7208 24.1059 15.7967 24.0734 15.8833 24.0625C16.1433 23.9975 16.4142 23.9434 16.6633 23.8567C16.75 23.8242 16.8367 23.7917 16.9233 23.77C17.1617 23.6834 17.4108 23.6075 17.6383 23.51C17.725 23.4775 17.8117 23.4342 17.8983 23.3909C18.1258 23.2934 18.3533 23.185 18.5808 23.0659C18.6675 23.0225 18.7433 22.9684 18.8192 22.925C19.0358 22.795 19.2525 22.6759 19.4692 22.535C19.545 22.4917 19.61 22.4375 19.6858 22.3834C19.9025 22.2317 20.1083 22.08 20.3033 21.9175C20.3683 21.8634 20.4225 21.8092 20.4875 21.7659C20.6067 21.6684 20.7258 21.5709 20.8342 21.4734C20.8342 21.4625 20.8342 21.4625 20.8233 21.4517C22.9792 19.4692 24.3333 16.6417 24.3333 13.5ZM18.8517 18.8842C15.9158 16.9125 11.1058 16.9125 8.14832 18.8842C7.67166 19.1984 7.28166 19.5667 6.95666 19.9675C5.30999 18.2992 4.29166 16.0134 4.29166 13.5C4.29166 8.41919 8.41916 4.29169 13.5 4.29169C18.5808 4.29169 22.7083 8.41919 22.7083 13.5C22.7083 16.0134 21.69 18.2992 20.0433 19.9675C19.7292 19.5667 19.3283 19.1984 18.8517 18.8842Z" fill="#F9FAFB"/>
<path d="M13.5 8.00751C11.2575 8.00751 9.4375 9.82751 9.4375 12.07C9.4375 14.2692 11.16 16.0567 13.4458 16.1217C13.4783 16.1217 13.5217 16.1217 13.5433 16.1217C13.565 16.1217 13.5975 16.1217 13.6192 16.1217C13.63 16.1217 13.6408 16.1217 13.6408 16.1217C15.8292 16.0458 17.5517 14.2692 17.5625 12.07C17.5625 9.82751 15.7425 8.00751 13.5 8.00751Z" fill="#F9FAFB"/>
</svg>
