<svg width="27" height="26" viewBox="0 0 27 26" fill="none" xmlns="http://www.w3.org/2000/svg">
<path fill-rule="evenodd" clip-rule="evenodd" d="M10.5 4.87473C10.6765 4.87476 10.8483 4.9323 10.9892 5.03863C11.1301 5.14496 11.2326 5.2943 11.2811 5.46406L12.1618 8.54722C12.3515 9.21122 12.7072 9.81592 13.1955 10.3042C13.6838 10.7925 14.2885 11.1483 14.9525 11.3379L18.0357 12.2186C18.2053 12.2672 18.3545 12.3697 18.4607 12.5107C18.567 12.6516 18.6244 12.8233 18.6244 12.9997C18.6244 13.1762 18.567 13.3479 18.4607 13.4888C18.3545 13.6297 18.2053 13.7322 18.0357 13.7808L14.9525 14.6616C14.2885 14.8512 13.6838 15.207 13.1955 15.6952C12.7072 16.1835 12.3515 16.7882 12.1618 17.4522L11.2811 20.5354C11.2325 20.705 11.13 20.8542 10.9891 20.9605C10.8481 21.0667 10.6765 21.1241 10.5 21.1241C10.3235 21.1241 10.1519 21.0667 10.0109 20.9605C9.87001 20.8542 9.76751 20.705 9.71891 20.5354L8.83816 17.4522C8.64852 16.7882 8.29276 16.1835 7.80447 15.6952C7.31618 15.207 6.71149 14.8512 6.04749 14.6616L2.96433 13.7808C2.79468 13.7322 2.64547 13.6297 2.53925 13.4888C2.43303 13.3479 2.37558 13.1762 2.37558 12.9997C2.37558 12.8233 2.43303 12.6516 2.53925 12.5107C2.64547 12.3697 2.79468 12.2672 2.96433 12.2186L6.04749 11.3379C6.71149 11.1483 7.31618 10.7925 7.80447 10.3042C8.29276 9.81592 8.64852 9.21122 8.83816 8.54722L9.71891 5.46406C9.7674 5.2943 9.86986 5.14496 10.0108 5.03863C10.1517 4.9323 10.3234 4.87476 10.5 4.87473ZM20.25 1.62473C20.4313 1.62462 20.6073 1.68514 20.7502 1.79664C20.8932 1.90813 20.9947 2.06422 21.0387 2.24006L21.3182 3.36239C21.5738 4.38073 22.369 5.17589 23.3873 5.43156L24.5097 5.71106C24.6858 5.7547 24.8423 5.85607 24.9542 5.99901C25.066 6.14195 25.1268 6.31822 25.1268 6.49972C25.1268 6.68123 25.066 6.8575 24.9542 7.00044C24.8423 7.14338 24.6858 7.24475 24.5097 7.28839L23.3873 7.56789C22.369 7.82356 21.5738 8.61872 21.3182 9.63706L21.0387 10.7594C20.995 10.9356 20.8937 11.0921 20.7507 11.2039C20.6078 11.3158 20.4315 11.3765 20.25 11.3765C20.0685 11.3765 19.8922 11.3158 19.7493 11.2039C19.6063 11.0921 19.505 10.9356 19.4613 10.7594L19.1818 9.63706C19.0568 9.13702 18.7983 8.68036 18.4338 8.31591C18.0694 7.95145 17.6127 7.69289 17.1127 7.56789L15.9903 7.28839C15.8141 7.24475 15.6577 7.14338 15.5458 7.00044C15.4339 6.8575 15.3732 6.68123 15.3732 6.49972C15.3732 6.31822 15.4339 6.14195 15.5458 5.99901C15.6577 5.85607 15.8141 5.7547 15.9903 5.71106L17.1127 5.43156C17.6127 5.30656 18.0694 5.048 18.4338 4.68354C18.7983 4.31909 19.0568 3.86243 19.1818 3.36239L19.4613 2.24006C19.5053 2.06422 19.6068 1.90813 19.7497 1.79664C19.8926 1.68514 20.0687 1.62462 20.25 1.62473ZM18.625 16.2497C18.7956 16.2496 18.962 16.3033 19.1004 16.403C19.2389 16.5028 19.3424 16.6436 19.3963 16.8055L19.8232 18.0871C19.9857 18.5713 20.3648 18.9526 20.8502 19.1141L22.1317 19.542C22.2931 19.5962 22.4334 19.6997 22.5328 19.8379C22.6322 19.9761 22.6856 20.142 22.6856 20.3122C22.6856 20.4825 22.6322 20.6484 22.5328 20.7866C22.4334 20.9248 22.2931 21.0283 22.1317 21.0825L20.8502 21.5104C20.3659 21.6729 19.9846 22.0521 19.8232 22.5374L19.3952 23.819C19.3411 23.9804 19.2376 24.1206 19.0994 24.22C18.9612 24.3194 18.7952 24.3729 18.625 24.3729C18.4548 24.3729 18.2888 24.3194 18.1506 24.22C18.0124 24.1206 17.9089 23.9804 17.8547 23.819L17.4268 22.5374C17.347 22.2983 17.2127 22.081 17.0344 21.9028C16.8562 21.7245 16.6389 21.5902 16.3998 21.5104L15.1182 21.0825C14.9569 21.0283 14.8166 20.9248 14.7172 20.7866C14.6178 20.6484 14.5643 20.4825 14.5643 20.3122C14.5643 20.142 14.6178 19.9761 14.7172 19.8379C14.8166 19.6997 14.9569 19.5962 15.1182 19.542L16.3998 19.1141C16.8841 18.9516 17.2654 18.5724 17.4268 18.0871L17.8547 16.8055C17.9086 16.6438 18.012 16.5031 18.1502 16.4033C18.2884 16.3036 18.4545 16.2499 18.625 16.2497Z" fill="url(#paint0_linear_8439_11944)"/>
<defs>
<linearGradient id="paint0_linear_8439_11944" x1="-0.669861" y1="-0.65009" x2="28.3047" y2="4.37961" gradientUnits="userSpaceOnUse">
<stop offset="0.0673077" stop-color="#6BE3D7"/>
<stop offset="0.567308" stop-color="#EEA2F5"/>
<stop offset="1" stop-color="#F6CAB3"/>
</linearGradient>
</defs>
</svg>
