<svg width="21" height="26" viewBox="0 0 21 26" fill="none" xmlns="http://www.w3.org/2000/svg">
<g opacity="0.5">
<path d="M0.889698 3.71537L7.76351 6.63893C7.83017 6.66732 7.88682 6.7142 7.9264 6.77374C7.96598 6.83328 7.98676 6.90286 7.98614 6.97383V13.8256C7.98857 14.508 8.19415 15.1749 8.57787 15.7454C8.96159 16.3158 9.50692 16.7652 10.1475 17.0388L12.9954 18.2517V25.4927C12.997 25.577 12.9767 25.6603 12.9363 25.7349C12.8959 25.8094 12.8368 25.8727 12.7645 25.9188C12.6922 25.965 12.609 25.9924 12.5229 25.9986C12.4367 26.0049 12.3503 25.9896 12.2718 25.9543L2.48524 21.8179C1.89017 21.5578 1.38557 21.1343 1.03306 20.5991C0.680539 20.0638 0.495347 19.44 0.500089 18.8038V3.95976C0.500843 3.91505 0.5129 3.87122 0.535188 3.83215C0.557477 3.79308 0.589308 3.75999 0.627855 3.73581C0.666401 3.71164 0.71047 3.69712 0.756149 3.69355C0.801827 3.68999 0.847701 3.69748 0.889698 3.71537Z" fill="#F9FAFB"/>
<path d="M0.973184 3.30804L10.732 7.46257C11.4041 7.74798 11.9763 8.21859 12.3784 8.81668C12.7805 9.41478 12.9949 10.1144 12.9954 10.8296V18.2517L20.0455 15.2557C20.1798 15.1993 20.2944 15.1059 20.3751 14.987C20.4559 14.868 20.4993 14.7286 20.5 14.5859V7.58024C20.4985 6.89074 20.2916 6.21653 19.9046 5.63964C19.5176 5.06274 18.9671 4.60804 18.32 4.33083L8.28299 0.0676875C8.17923 0.0230522 8.06707 0 7.95367 0C7.84028 0 7.72812 0.0230522 7.62436 0.0676875L0.973184 2.90073C0.933975 2.91926 0.900908 2.94819 0.87777 2.98421C0.854633 3.02023 0.842361 3.06188 0.842361 3.10439C0.842361 3.1469 0.854633 3.18854 0.87777 3.22456C0.900908 3.26058 0.933975 3.28951 0.973184 3.30804Z" fill="#F9FAFB"/>
</g>
</svg>
