<svg width="27" height="26" viewBox="0 0 27 26" fill="none" xmlns="http://www.w3.org/2000/svg">
<path fill-rule="evenodd" clip-rule="evenodd" d="M8.3 2.60001C7.95522 2.60001 7.62456 2.73697 7.38076 2.98077C7.13696 3.22456 7 3.55522 7 3.90001V5.20001H5.7C5.01044 5.20001 4.34912 5.47393 3.86152 5.96153C3.37393 6.44912 3.1 7.11044 3.1 7.8V20.8C3.1 21.4896 3.37393 22.1509 3.86152 22.6385C4.34912 23.1261 5.01044 23.4 5.7 23.4H21.3C21.9896 23.4 22.6509 23.1261 23.1385 22.6385C23.6261 22.1509 23.9 21.4896 23.9 20.8V7.8C23.9 7.11044 23.6261 6.44912 23.1385 5.96153C22.6509 5.47393 21.9896 5.20001 21.3 5.20001H20V3.90001C20 3.55522 19.863 3.22456 19.6192 2.98077C19.3754 2.73697 19.0448 2.60001 18.7 2.60001C18.3552 2.60001 18.0246 2.73697 17.7808 2.98077C17.537 3.22456 17.4 3.55522 17.4 3.90001V5.20001H9.6V3.90001C9.6 3.55522 9.46303 3.22456 9.21924 2.98077C8.97544 2.73697 8.64478 2.60001 8.3 2.60001ZM8.3 9.1C7.95522 9.1 7.62456 9.23697 7.38076 9.48077C7.13696 9.72456 7 10.0552 7 10.4C7 10.7448 7.13696 11.0754 7.38076 11.3192C7.62456 11.563 7.95522 11.7 8.3 11.7H18.7C19.0448 11.7 19.3754 11.563 19.6192 11.3192C19.863 11.0754 20 10.7448 20 10.4C20 10.0552 19.863 9.72456 19.6192 9.48077C19.3754 9.23697 19.0448 9.1 18.7 9.1H8.3Z" fill="url(#paint0_linear_8490_17122)"/>
<defs>
<linearGradient id="paint0_linear_8490_17122" x1="0.315747" y1="0.520007" x2="26.8055" y2="5.11776" gradientUnits="userSpaceOnUse">
<stop offset="0.0673077" stop-color="#6BE3D7"/>
<stop offset="0.567308" stop-color="#EEA2F5"/>
<stop offset="1" stop-color="#F6CAB3"/>
</linearGradient>
</defs>
</svg>
