<svg width="20" height="20" viewBox="0 0 20 20" fill="none" xmlns="http://www.w3.org/2000/svg">
<path d="M10.293 12.293C10.1975 12.3852 10.1213 12.4956 10.0689 12.6176C10.0165 12.7396 9.9889 12.8708 9.98775 13.0036C9.98659 13.1364 10.0119 13.2681 10.0622 13.391C10.1125 13.5138 10.1867 13.6255 10.2806 13.7194C10.3745 13.8133 10.4861 13.8875 10.609 13.9378C10.7319 13.9881 10.8636 14.0134 10.9964 14.0123C11.1292 14.0111 11.2604 13.9835 11.3824 13.9311C11.5044 13.8787 11.6148 13.8025 11.707 13.707L14.707 10.707C14.8945 10.5195 14.9998 10.2652 14.9998 10C14.9998 9.73484 14.8945 9.48053 14.707 9.293L11.707 6.293C11.5184 6.11084 11.2658 6.01005 11.0036 6.01233C10.7414 6.0146 10.4906 6.11977 10.3052 6.30518C10.1198 6.49059 10.0146 6.7414 10.0123 7.0036C10.01 7.2658 10.1108 7.5184 10.293 7.707L11.586 9L6 9L6 4C6 3.46957 6.21071 2.96086 6.58579 2.58579C6.96086 2.21071 7.46957 2 8 2L15 2C15.5304 2 16.0391 2.21071 16.4142 2.58579C16.7893 2.96086 17 3.46957 17 4L17 16C17 16.5304 16.7893 17.0391 16.4142 17.4142C16.0391 17.7893 15.5304 18 15 18L8 18C7.46957 18 6.96086 17.7893 6.58579 17.4142C6.21071 17.0391 6 16.5304 6 16L6 11L11.586 11L10.293 12.293ZM4 11C3.73478 11 3.48043 10.8946 3.29289 10.7071C3.10536 10.5196 3 10.2652 3 10C3 9.73478 3.10536 9.48043 3.29289 9.29289C3.48043 9.10536 3.73478 9 4 9L6 9L6 11L4 11Z" fill="#F9FAFB"/>
</svg>
