<svg width="27" height="26" viewBox="0 0 27 26" fill="none" xmlns="http://www.w3.org/2000/svg">
<path d="M16.5833 18.4167H22L20.4779 16.8946C20.2735 16.6901 20.1114 16.4474 20.0008 16.1803C19.8902 15.9132 19.8333 15.6269 19.8333 15.3378V11.9167C19.8335 10.5722 19.4169 9.2607 18.6408 8.1628C17.8648 7.06489 16.7675 6.23454 15.5 5.78608V5.41667C15.5 4.84203 15.2717 4.29093 14.8654 3.8846C14.4591 3.47827 13.908 3.25 13.3333 3.25C12.7587 3.25 12.2076 3.47827 11.8013 3.8846C11.3949 4.29093 11.1667 4.84203 11.1667 5.41667V5.78608C8.64249 6.67875 6.83332 9.087 6.83332 11.9167V15.3389C6.83332 15.9218 6.60149 16.4818 6.18874 16.8946L4.66666 18.4167H10.0833M16.5833 18.4167H10.0833M16.5833 18.4167V19.5C16.5833 20.362 16.2409 21.1886 15.6314 21.7981C15.0219 22.4076 14.1953 22.75 13.3333 22.75C12.4714 22.75 11.6447 22.4076 11.0352 21.7981C10.4257 21.1886 10.0833 20.362 10.0833 19.5V18.4167" stroke="white" stroke-opacity="0.5" stroke-width="2.5" stroke-linecap="round" stroke-linejoin="round"/>
</svg>
