<svg width="21" height="22" viewBox="0 0 21 22" fill="none" xmlns="http://www.w3.org/2000/svg">
<path d="M13.5 16.4167H18.9167L17.3946 14.8946C17.1902 14.6901 17.0281 14.4474 16.9175 14.1803C16.8069 13.9132 16.75 13.6269 16.75 13.3378V9.91667C16.7502 8.57218 16.3335 7.2607 15.5575 6.1628C14.7815 5.06489 13.6842 4.23454 12.4167 3.78608V3.41667C12.4167 2.84203 12.1884 2.29093 11.7821 1.8846C11.3757 1.47827 10.8246 1.25 10.25 1.25C9.67536 1.25 9.12426 1.47827 8.71793 1.8846C8.31161 2.29093 8.08333 2.84203 8.08333 3.41667V3.78608C5.55917 4.67875 3.75 7.087 3.75 9.91667V13.3389C3.75 13.9218 3.51817 14.4818 3.10542 14.8946L1.58333 16.4167H7M13.5 16.4167H7M13.5 16.4167V17.5C13.5 18.362 13.1576 19.1886 12.5481 19.7981C11.9386 20.4076 11.112 20.75 10.25 20.75C9.38804 20.75 8.56139 20.4076 7.9519 19.7981C7.34241 19.1886 7 18.362 7 17.5V16.4167" stroke="white" stroke-opacity="0.5" stroke-width="2.5" stroke-linecap="round" stroke-linejoin="round"/>
</svg>
