<svg width="50" height="60" viewBox="0 0 50 60" fill="none" xmlns="http://www.w3.org/2000/svg">
<path d="M24.8333 10.6001C22.7646 10.6001 20.7807 11.4219 19.3179 12.8847C17.8551 14.3474 17.0333 16.3314 17.0333 18.4001V23.0619L16.1142 23.981C15.9325 24.1628 15.8087 24.3944 15.7585 24.6466C15.7084 24.8987 15.7342 25.16 15.8325 25.3975C15.9309 25.6351 16.0975 25.8381 16.3112 25.9809C16.5249 26.1238 16.7762 26.2 17.0333 26.2001H32.6333C32.8904 26.2 33.1417 26.1238 33.3554 25.9809C33.5691 25.8381 33.7357 25.6351 33.8341 25.3975C33.9325 25.16 33.9582 24.8987 33.9081 24.6466C33.8579 24.3944 33.7342 24.1628 33.5524 23.981L32.6333 23.0619V18.4001C32.6333 16.3314 31.8115 14.3474 30.3487 12.8847C28.886 11.4219 26.902 10.6001 24.8333 10.6001ZM24.8333 31.4001C23.799 31.4001 22.807 30.9892 22.0756 30.2578C21.3442 29.5264 20.9333 28.5344 20.9333 27.5001H28.7333C28.7333 28.5344 28.3224 29.5264 27.591 30.2578C26.8596 30.9892 25.8676 31.4001 24.8333 31.4001Z" fill="#F9FAFB"/>
<path d="M10.4722 38.32H11.5972V49H9.51222V43L6.43722 47.17H5.64222L2.55222 43.03V49H0.482219V38.32H1.59222L6.04722 44.365L10.4722 38.32ZM16.8169 40.615C18.1769 40.615 19.2469 41.01 20.0269 41.8C20.8069 42.58 21.1969 43.605 21.1969 44.875C21.1969 46.185 20.8019 47.225 20.0119 47.995C19.2319 48.765 18.1369 49.15 16.7269 49.15C15.0769 49.15 13.8419 48.615 13.0219 47.545L14.4019 46.285C14.9419 46.955 15.6769 47.29 16.6069 47.29C17.2569 47.29 17.7919 47.145 18.2119 46.855C18.6419 46.555 18.9219 46.145 19.0519 45.625H15.4819V44.14H19.0519C18.9419 43.62 18.6769 43.215 18.2569 42.925C17.8469 42.635 17.3169 42.49 16.6669 42.49C15.7569 42.49 15.0219 42.835 14.4619 43.525L13.0669 42.205C13.4569 41.725 13.9769 41.34 14.6269 41.05C15.2769 40.76 16.0069 40.615 16.8169 40.615ZM30.2925 47.14H31.6725V51.22H29.8425V49H23.6775V51.22H21.8475V47.14H22.5375C23.1675 46.8 23.4825 45.605 23.4825 43.555V40.81H30.2925V47.14ZM24.6825 47.155H28.2975V42.64H25.4625V44.02C25.4625 45.52 25.2025 46.565 24.6825 47.155ZM36.1382 40.615C37.4982 40.615 38.5682 41.01 39.3482 41.8C40.1282 42.58 40.5182 43.605 40.5182 44.875C40.5182 46.185 40.1232 47.225 39.3332 47.995C38.5532 48.765 37.4582 49.15 36.0482 49.15C34.3982 49.15 33.1632 48.615 32.3432 47.545L33.7232 46.285C34.2632 46.955 34.9982 47.29 35.9282 47.29C36.5782 47.29 37.1132 47.145 37.5332 46.855C37.9632 46.555 38.2432 46.145 38.3732 45.625H34.8032V44.14H38.3732C38.2632 43.62 37.9982 43.215 37.5782 42.925C37.1682 42.635 36.6382 42.49 35.9882 42.49C35.0782 42.49 34.3432 42.835 33.7832 43.525L32.3882 42.205C32.7782 41.725 33.2982 41.34 33.9482 41.05C34.5982 40.76 35.3282 40.615 36.1382 40.615ZM45.2788 40.615C46.6388 40.615 47.7088 41.01 48.4888 41.8C49.2688 42.58 49.6588 43.605 49.6588 44.875C49.6588 46.185 49.2638 47.225 48.4738 47.995C47.6938 48.765 46.5988 49.15 45.1888 49.15C43.5388 49.15 42.3038 48.615 41.4838 47.545L42.8638 46.285C43.4038 46.955 44.1388 47.29 45.0688 47.29C45.7188 47.29 46.2538 47.145 46.6738 46.855C47.1038 46.555 47.3838 46.145 47.5138 45.625H43.9438V44.14H47.5138C47.4038 43.62 47.1388 43.215 46.7188 42.925C46.3088 42.635 45.7788 42.49 45.1288 42.49C44.2188 42.49 43.4838 42.835 42.9238 43.525L41.5288 42.205C41.9188 41.725 42.4388 41.34 43.0888 41.05C43.7388 40.76 44.4688 40.615 45.2788 40.615Z" fill="#F9FAFB"/>
</svg>
