<svg width="73" height="60" viewBox="0 0 73 60" fill="none" xmlns="http://www.w3.org/2000/svg">
<path d="M47.3333 20.9998C47.3333 15.0307 42.4692 10.1665 36.5 10.1665C30.5308 10.1665 25.6667 15.0307 25.6667 20.9998C25.6667 24.1415 27.0208 26.969 29.1658 28.9515C29.1658 28.9623 29.1658 28.9623 29.155 28.9732C29.2633 29.0815 29.3933 29.1682 29.5017 29.2657C29.5667 29.3198 29.6208 29.374 29.6858 29.4173C29.8808 29.5798 30.0975 29.7315 30.3033 29.8832C30.3792 29.9373 30.4442 29.9807 30.52 30.0348C30.7258 30.1757 30.9425 30.3057 31.17 30.4248C31.2458 30.4682 31.3325 30.5223 31.4083 30.5657C31.625 30.6848 31.8525 30.7932 32.0908 30.8907C32.1775 30.934 32.2642 30.9773 32.3508 31.0098C32.5892 31.1073 32.8275 31.194 33.0658 31.2698C33.1525 31.3023 33.2392 31.3348 33.3258 31.3565C33.5858 31.4323 33.8458 31.4973 34.1058 31.5623C34.1817 31.584 34.2575 31.6057 34.3442 31.6165C34.6475 31.6815 34.9508 31.7248 35.265 31.7573C35.3083 31.7573 35.3517 31.7682 35.395 31.779C35.7633 31.8115 36.1317 31.8332 36.5 31.8332C36.8683 31.8332 37.2367 31.8115 37.5942 31.779C37.6375 31.779 37.6808 31.7682 37.7242 31.7573C38.0383 31.7248 38.3417 31.6815 38.645 31.6165C38.7208 31.6057 38.7967 31.5732 38.8833 31.5623C39.1433 31.4973 39.4142 31.4432 39.6633 31.3565C39.75 31.324 39.8367 31.2915 39.9233 31.2698C40.1617 31.1832 40.4108 31.1073 40.6383 31.0098C40.725 30.9773 40.8117 30.934 40.8983 30.8907C41.1258 30.7932 41.3533 30.6848 41.5808 30.5657C41.6675 30.5223 41.7433 30.4682 41.8192 30.4248C42.0358 30.2948 42.2525 30.1757 42.4692 30.0348C42.545 29.9915 42.61 29.9373 42.6858 29.8832C42.9025 29.7315 43.1083 29.5798 43.3033 29.4173C43.3683 29.3632 43.4225 29.309 43.4875 29.2657C43.6067 29.1682 43.7258 29.0707 43.8342 28.9732C43.8342 28.9623 43.8342 28.9623 43.8233 28.9515C45.9792 26.969 47.3333 24.1415 47.3333 20.9998ZM41.8517 26.384C38.9158 24.4123 34.1058 24.4123 31.1483 26.384C30.6717 26.6982 30.2817 27.0665 29.9567 27.4673C28.31 25.799 27.2917 23.5132 27.2917 20.9998C27.2917 15.919 31.4192 11.7915 36.5 11.7915C41.5808 11.7915 45.7083 15.919 45.7083 20.9998C45.7083 23.5132 44.69 25.799 43.0433 27.4673C42.7292 27.0665 42.3283 26.6982 41.8517 26.384Z" fill="#F9FAFB"/>
<path d="M36.5 15.5073C34.2575 15.5073 32.4375 17.3273 32.4375 19.5698C32.4375 21.769 34.16 23.5565 36.4458 23.6215C36.4783 23.6215 36.5217 23.6215 36.5433 23.6215C36.565 23.6215 36.5975 23.6215 36.6192 23.6215C36.63 23.6215 36.6408 23.6215 36.6408 23.6215C38.8292 23.5457 40.5517 21.769 40.5625 19.5698C40.5625 17.3273 38.7425 15.5073 36.5 15.5073Z" fill="#F9FAFB"/>
<path d="M0.854961 49V38.365H9.92996V49H7.82996V40.33H2.96996V49H0.854961ZM11.9431 51.64V40.81H13.9831V41.515C14.5931 40.915 15.4331 40.615 16.5031 40.615C17.6631 40.615 18.5931 41.005 19.2931 41.785C20.0031 42.555 20.3581 43.59 20.3581 44.89C20.3581 46.2 19.9981 47.245 19.2781 48.025C18.5681 48.795 17.6131 49.18 16.4131 49.18C15.3331 49.18 14.5231 48.855 13.9831 48.205V51.64H11.9431ZM15.9631 47.32C16.6531 47.32 17.2031 47.105 17.6131 46.675C18.0231 46.235 18.2281 45.64 18.2281 44.89C18.2281 44.13 18.0231 43.54 17.6131 43.12C17.2131 42.69 16.6781 42.475 16.0081 42.475C15.5981 42.475 15.2031 42.57 14.8231 42.76C14.4431 42.94 14.1531 43.195 13.9531 43.525V46.24C14.3631 46.96 15.0331 47.32 15.9631 47.32ZM25.9691 49.18C24.6091 49.18 23.5141 48.795 22.6841 48.025C21.8641 47.245 21.4541 46.2 21.4541 44.89C21.4541 43.6 21.8691 42.57 22.6991 41.8C23.5291 41.02 24.6191 40.63 25.9691 40.63C27.3191 40.63 28.4041 41.02 29.2241 41.8C30.0441 42.57 30.4541 43.6 30.4541 44.89C30.4541 46.2 30.0441 47.245 29.2241 48.025C28.4041 48.795 27.3191 49.18 25.9691 49.18ZM25.9691 47.29C26.6691 47.29 27.2341 47.07 27.6641 46.63C28.1041 46.19 28.3241 45.61 28.3241 44.89C28.3241 44.18 28.1041 43.61 27.6641 43.18C27.2341 42.74 26.6691 42.52 25.9691 42.52C25.2591 42.52 24.6841 42.74 24.2441 43.18C23.8141 43.61 23.5991 44.18 23.5991 44.89C23.5991 45.61 23.8141 46.19 24.2441 46.63C24.6841 47.07 25.2591 47.29 25.9691 47.29ZM41.7918 41.815C42.6218 42.575 43.0368 43.615 43.0368 44.935C43.0368 46.255 42.6118 47.29 41.7618 48.04C40.9218 48.79 39.7768 49.175 38.3268 49.195V51.64H36.2568V49.195C34.8068 49.175 33.6568 48.79 32.8068 48.04C31.9668 47.29 31.5468 46.255 31.5468 44.935C31.5468 43.615 31.9618 42.575 32.7918 41.815C33.6218 41.045 34.7768 40.65 36.2568 40.63V37.63H38.3268V40.63C39.8068 40.65 40.9618 41.045 41.7918 41.815ZM33.6618 44.89C33.6618 45.64 33.8768 46.24 34.3068 46.69C34.7468 47.14 35.4168 47.37 36.3168 47.38V42.445C35.4268 42.455 34.7618 42.695 34.3218 43.165C33.8818 43.625 33.6618 44.2 33.6618 44.89ZM38.2668 47.38C39.1768 47.37 39.8468 47.145 40.2768 46.705C40.7068 46.255 40.9218 45.65 40.9218 44.89C40.9218 44.2 40.7018 43.625 40.2618 43.165C39.8218 42.695 39.1568 42.455 38.2668 42.445V47.38ZM48.0752 49.18C46.8752 49.18 45.9152 48.795 45.1952 48.025C44.4752 47.245 44.1152 46.2 44.1152 44.89C44.1152 43.59 44.4702 42.555 45.1802 41.785C45.8902 41.005 46.8252 40.615 47.9852 40.615C49.0552 40.615 49.8952 40.915 50.5052 41.515V40.81H52.5452V49H50.5352V48.205C49.9952 48.855 49.1752 49.18 48.0752 49.18ZM48.5252 47.32C49.4652 47.32 50.1352 46.96 50.5352 46.24V43.525C50.3352 43.195 50.0452 42.94 49.6652 42.76C49.2852 42.57 48.8902 42.475 48.4802 42.475C47.8102 42.475 47.2702 42.69 46.8602 43.12C46.4502 43.54 46.2452 44.13 46.2452 44.89C46.2452 45.64 46.4502 46.235 46.8602 46.675C47.2702 47.105 47.8252 47.32 48.5252 47.32ZM60.3325 39.085C59.8525 39.485 59.2125 39.685 58.4125 39.685C57.6125 39.685 56.9675 39.48 56.4775 39.07C55.9975 38.66 55.7425 38.065 55.7125 37.285H57.0325C57.2125 37.925 57.6725 38.245 58.4125 38.245C59.1525 38.245 59.6025 37.925 59.7625 37.285H61.0975C61.0675 38.075 60.8125 38.675 60.3325 39.085ZM61.2325 40.75H62.3125V49H60.3475V44.23L55.5925 49.06H54.4675V40.81H56.4475V45.58L61.2325 40.75ZM64.4313 49.045C64.0313 49.045 63.7313 49.03 63.5313 49V47.2H63.9813C64.4813 47.2 64.8263 47.01 65.0163 46.63C65.2063 46.25 65.3013 45.68 65.3013 44.92V40.81H72.1563V49H70.1013V42.67H67.2963V45.385C67.2963 46.705 67.0563 47.645 66.5763 48.205C66.0963 48.765 65.3813 49.045 64.4313 49.045Z" fill="#F9FAFB"/>
</svg>
