<svg width="26" height="26" viewBox="0 0 26 26" fill="none" xmlns="http://www.w3.org/2000/svg">
<path fill-rule="evenodd" clip-rule="evenodd" d="M8.32129 10.3026C8.32129 7.72268 10.4044 5.62427 12.9996 5.62427C15.5818 5.62427 17.678 7.72045 17.678 10.3026V10.309C17.6637 12.824 15.6846 14.8837 13.168 14.9694C13.1117 14.9714 13.0555 14.9691 12.9996 14.9626C12.9438 14.9691 12.8875 14.9714 12.8313 14.9694C10.3204 14.8838 8.32129 12.8283 8.32129 10.3026ZM12.9996 7.87427C11.6515 7.87427 10.5713 8.96085 10.5713 10.3026C10.5713 11.5902 11.5715 12.641 12.8434 12.7177C12.9449 12.7104 13.0523 12.7098 13.1588 12.7175C14.4226 12.6396 15.419 11.5949 15.428 10.2995C15.4262 8.96138 14.3381 7.87427 12.9996 7.87427Z" fill="white" fill-opacity="0.5"/>
<path fill-rule="evenodd" clip-rule="evenodd" d="M13.0003 1.04175C6.39592 1.04175 1.04199 6.39568 1.04199 13.0001C1.04199 19.6045 6.39592 24.9584 13.0003 24.9584C19.6047 24.9584 24.9587 19.6045 24.9587 13.0001C24.9587 6.39568 19.6047 1.04175 13.0003 1.04175ZM3.29199 13.0001C3.29199 7.63832 7.63856 3.29175 13.0003 3.29175C18.3621 3.29175 22.7087 7.63832 22.7087 13.0001C22.7087 15.228 21.9582 17.2806 20.6963 18.9189C20.2807 18.2929 19.7066 17.7339 19.0121 17.2666L19.0097 17.2649C17.3118 16.1289 15.1308 15.5962 13.008 15.5962C10.8849 15.5962 8.70029 16.129 6.99328 17.2628L6.98768 17.2666C6.29339 17.7338 5.71943 18.2925 5.30386 18.9183C4.04225 17.2801 3.29199 15.2277 3.29199 13.0001ZM14.3061 22.6213C13.8792 22.6787 13.4432 22.7083 12.9999 22.7083C12.032 22.7083 11.0987 22.5672 10.2184 22.304C9.01533 21.9442 7.91108 21.3563 6.95216 20.5886C7.14573 20.1129 7.54763 19.6024 8.24101 19.1352C9.50209 18.2986 11.2271 17.8462 13.008 17.8462C14.7901 17.8462 16.5085 18.2991 17.7572 19.1341C18.4516 19.6016 18.8539 20.1125 19.0477 20.5886C17.8735 21.5286 16.4815 22.1991 14.9569 22.5112C14.7425 22.5551 14.5255 22.5919 14.3061 22.6213Z" fill="white" fill-opacity="0.5"/>
</svg>
