<svg width="48" height="60" viewBox="0 0 48 60" fill="none" xmlns="http://www.w3.org/2000/svg">
<g filter="url(#filter0_d_3566_12174)">
<path fill-rule="evenodd" clip-rule="evenodd" d="M13.6215 12.6211C14.7917 11.4508 16.5917 11.2083 18.7503 11.2083H29.5836C31.7423 11.2083 33.5422 11.4508 34.7125 12.6211C35.8827 13.7913 36.1253 15.5913 36.1253 17.7499V18.8333C36.1253 19.4546 35.6216 19.9583 35.0003 19.9583C34.1266 19.9583 33.417 20.6679 33.417 21.5416C33.417 22.4153 34.1266 23.1249 35.0003 23.1249C35.6216 23.1249 36.1253 23.6286 36.1253 24.2499C36.1253 26.4085 35.8827 28.2085 34.7125 29.3787C33.5422 30.549 31.7423 30.7916 29.5836 30.7916H18.7503C16.5917 30.7916 14.7917 30.549 13.6215 29.3787C12.4512 28.2085 12.2086 26.4085 12.2086 24.2499V23.7083C12.2086 23.0869 12.7123 22.5833 13.3336 22.5833C14.2073 22.5833 14.917 21.8736 14.917 20.9999C14.917 20.1262 14.2073 19.4166 13.3336 19.4166C12.7123 19.4166 12.2086 18.9129 12.2086 18.2916V17.7499C12.2086 15.5913 12.4512 13.7913 13.6215 12.6211ZM21.6667 17C21.1144 17 20.6667 17.4477 20.6667 18V23C20.6667 23.5523 21.1144 24 21.6667 24C22.2189 24 22.6667 23.5523 22.6667 23V18C22.6667 17.4477 22.2189 17 21.6667 17Z" fill="white"/>
</g>
<path d="M5.50027 38.17C7.20027 38.17 8.55527 38.66 9.56527 39.64C10.5853 40.61 11.0953 41.945 11.0953 43.645C11.0953 45.385 10.5853 46.75 9.56527 47.74C8.54527 48.72 7.17027 49.21 5.44027 49.21C4.32027 49.21 3.39027 49.05 2.65027 48.73C1.91027 48.4 1.27527 47.915 0.74527 47.275L2.38027 45.865C3.03027 46.765 4.05027 47.215 5.44027 47.215C6.35027 47.215 7.10527 47 7.70527 46.57C8.30527 46.14 8.69027 45.505 8.86027 44.665H3.56527V42.925H8.92027C8.78027 42.025 8.40527 41.335 7.79527 40.855C7.18527 40.375 6.41527 40.135 5.48527 40.135C4.80527 40.135 4.20027 40.265 3.67027 40.525C3.14027 40.785 2.72527 41.125 2.42527 41.545L0.79027 40.135C1.85027 38.825 3.42027 38.17 5.50027 38.17ZM18.9378 44.545C19.4678 44.675 19.8828 44.915 20.1828 45.265C20.4828 45.615 20.6328 46.06 20.6328 46.6C20.6328 47.39 20.3728 47.99 19.8528 48.4C19.3328 48.8 18.4928 49 17.3328 49H12.7128V40.825H17.1678C19.0878 40.825 20.0478 41.49 20.0478 42.82C20.0478 43.69 19.6778 44.265 18.9378 44.545ZM14.7378 42.49V44.155H16.8678C17.6578 44.155 18.0528 43.85 18.0528 43.24C18.0528 42.74 17.6828 42.49 16.9428 42.49H14.7378ZM17.3178 47.32C18.1378 47.32 18.5478 47.04 18.5478 46.48C18.5478 45.92 18.1028 45.64 17.2128 45.64H14.7378V47.32H17.3178ZM30.0103 44.905C30.0103 45.205 30.0053 45.41 29.9953 45.52H23.6353C23.7453 46.13 24.0053 46.6 24.4153 46.93C24.8353 47.26 25.3803 47.425 26.0503 47.425C27.0703 47.425 27.8603 47.075 28.4203 46.375L29.7253 47.485C28.9153 48.605 27.6403 49.165 25.9003 49.165C24.5403 49.165 23.4703 48.78 22.6903 48.01C21.9203 47.24 21.5353 46.195 21.5353 44.875C21.5353 43.585 21.9303 42.55 22.7203 41.77C23.5103 40.98 24.5353 40.585 25.7953 40.585C27.1653 40.585 28.2103 40.98 28.9303 41.77C29.6503 42.55 30.0103 43.595 30.0103 44.905ZM25.7953 42.31C25.2453 42.31 24.7803 42.455 24.4003 42.745C24.0203 43.025 23.7703 43.45 23.6503 44.02H27.9853C27.9153 43.53 27.7003 43.125 27.3403 42.805C26.9803 42.475 26.4653 42.31 25.7953 42.31ZM37.1203 40.81H39.1903V49H37.1203V46.06H33.4303V49H31.3603V40.81H33.4303V44.32H37.1203V40.81ZM47.6697 40.81V42.67H45.1047V49H43.0497V42.67H40.4847V40.81H47.6697Z" fill="#F9FAFB"/>
<defs>
<filter id="filter0_d_3566_12174" x="7.16666" y="4" width="34" height="34" filterUnits="userSpaceOnUse" color-interpolation-filters="sRGB">
<feFlood flood-opacity="0" result="BackgroundImageFix"/>
<feColorMatrix in="SourceAlpha" type="matrix" values="0 0 0 0 0 0 0 0 0 0 0 0 0 0 0 0 0 0 127 0" result="hardAlpha"/>
<feOffset/>
<feGaussianBlur stdDeviation="2"/>
<feComposite in2="hardAlpha" operator="out"/>
<feColorMatrix type="matrix" values="0 0 0 0 0 0 0 0 0 0 0 0 0 0 0 0 0 0 0.1 0"/>
<feBlend mode="normal" in2="BackgroundImageFix" result="effect1_dropShadow_3566_12174"/>
<feBlend mode="normal" in="SourceGraphic" in2="effect1_dropShadow_3566_12174" result="shape"/>
</filter>
</defs>
</svg>
