<svg width="33" height="28" viewBox="0 0 33 28" fill="none" xmlns="http://www.w3.org/2000/svg">
<g filter="url(#filter0_d_3566_9242)">
<path d="M15.6247 11.8333C15.6247 11.2119 15.121 10.7083 14.4997 10.7083C13.8783 10.7083 13.3747 11.2119 13.3747 11.8333V16.1666C13.3747 16.7879 13.8783 17.2916 14.4997 17.2916C15.121 17.2916 15.6247 16.7879 15.6247 16.1666V11.8333Z" fill="white" fill-opacity="0.5"/>
<path fill-rule="evenodd" clip-rule="evenodd" d="M11.2503 4.20825C9.09169 4.20825 7.29175 4.45083 6.12149 5.62109C4.95123 6.79135 4.70865 8.59129 4.70865 10.7499V11.2916C4.70865 11.9129 5.21233 12.4166 5.83365 12.4166C6.70733 12.4166 7.41698 13.1262 7.41698 13.9999C7.41698 14.8736 6.70733 15.5833 5.83365 15.5833C5.21233 15.5833 4.70865 16.0869 4.70865 16.7083V17.2499C4.70865 19.4085 4.95123 21.2085 6.12149 22.3787C7.29175 23.549 9.09169 23.7916 11.2503 23.7916H22.0836C24.2423 23.7916 26.0422 23.549 27.2125 22.3787C28.3827 21.2085 28.6253 19.4085 28.6253 17.2499C28.6253 16.6286 28.1216 16.1249 27.5003 16.1249C26.6266 16.1249 25.917 15.4153 25.917 14.5416C25.917 13.6679 26.6266 12.9583 27.5003 12.9583C28.1216 12.9583 28.6253 12.4546 28.6253 11.8333V10.7499C28.6253 8.59129 28.3827 6.79135 27.2125 5.62109C26.0422 4.45083 24.2423 4.20825 22.0836 4.20825H11.2503ZM13.3747 6.45825V7.49992C13.3747 8.12124 13.8783 8.62492 14.4997 8.62492C15.121 8.62492 15.6247 8.12124 15.6247 7.49992V6.45825H22.0836C24.2584 6.45825 25.1667 6.75734 25.6215 7.21208C26.0762 7.66682 26.3753 8.57521 26.3753 10.7499V10.8761C24.8076 11.3571 23.667 12.8167 23.667 14.5416C23.667 16.2582 24.7967 17.7122 26.3529 18.2001C26.2756 19.7038 26.0034 20.4058 25.6215 20.7878C25.1667 21.2425 24.2584 21.5416 22.0836 21.5416H15.6247V20.4999C15.6247 19.8786 15.121 19.3749 14.4997 19.3749C13.8783 19.3749 13.3747 19.8786 13.3747 20.4999V21.5416H11.2503C9.07561 21.5416 8.16722 21.2425 7.71248 20.7878C7.28775 20.363 6.99881 19.5426 6.96252 17.6642C8.52827 17.182 9.66698 15.7234 9.66698 13.9999C9.66698 12.2765 8.52827 10.8178 6.96252 10.3357C6.9988 8.45729 7.28775 7.63681 7.71248 7.21208C8.16722 6.75734 9.07561 6.45825 11.2503 6.45825H13.3747Z" fill="white" fill-opacity="0.5"/>
</g>
<defs>
<filter id="filter0_d_3566_9242" x="-0.333344" y="-3" width="34" height="34" filterUnits="userSpaceOnUse" color-interpolation-filters="sRGB">
<feFlood flood-opacity="0" result="BackgroundImageFix"/>
<feColorMatrix in="SourceAlpha" type="matrix" values="0 0 0 0 0 0 0 0 0 0 0 0 0 0 0 0 0 0 127 0" result="hardAlpha"/>
<feOffset/>
<feGaussianBlur stdDeviation="2"/>
<feComposite in2="hardAlpha" operator="out"/>
<feColorMatrix type="matrix" values="0 0 0 0 0 0 0 0 0 0 0 0 0 0 0 0 0 0 0.1 0"/>
<feBlend mode="normal" in2="BackgroundImageFix" result="effect1_dropShadow_3566_9242"/>
<feBlend mode="normal" in="SourceGraphic" in2="effect1_dropShadow_3566_9242" result="shape"/>
</filter>
</defs>
</svg>
