<svg width="26" height="20" viewBox="0 0 26 20" fill="none" xmlns="http://www.w3.org/2000/svg">
<path d="M3.08307 0.459473C1.40238 0.459472 0.519653 1.5036 0.519653 3.06917V16.9304C0.519653 18.496 1.40238 19.5401 3.08307 19.5401H22.917C24.5977 19.5401 25.4804 18.496 25.4804 16.9304V3.06917C25.4804 1.5036 24.5977 0.459472 22.917 0.459473H3.08307Z" fill="#D9D6CC"/>
<path d="M2.88098 1.5293C1.49527 1.5293 1.08258 2.34095 1.08258 3.34919V9.98422L7.19807 9.99527C8.83189 9.99823 9.50089 10.6406 10.1817 11.5395C10.3551 11.7685 10.566 12.0788 10.772 12.2803C11.387 12.8819 12.1935 13.1825 13.0001 13.1825C13.8066 13.1825 14.6131 12.8819 15.2281 12.2803C15.4341 12.0788 15.645 11.7685 15.8184 11.5395C16.4992 10.6406 17.1682 9.99823 18.8021 9.99527L24.9176 9.98422V3.34919C24.9176 2.34095 24.5049 1.5293 23.1192 1.5293H2.88098Z" fill="#F16D5E"/>
<path d="M2.88098 1.5293C1.49527 1.5293 1.08258 2.34095 1.08258 3.34919V5.47496C1.08258 4.46673 1.49527 3.65507 2.88098 3.65507H23.1192C24.5049 3.65507 24.9176 4.46673 24.9176 5.47496V3.34919C24.9176 2.34095 24.5049 1.5293 23.1192 1.5293H2.88098Z" fill="#3295C9"/>
<mask id="mask0_3811_8655" style="mask-type:luminance" maskUnits="userSpaceOnUse" x="1" y="1" width="24" height="5">
<path d="M2.88098 1.5293C1.49527 1.5293 1.08258 2.34095 1.08258 3.34919V5.47496C1.08258 4.46672 1.49527 3.65507 2.88098 3.65507H23.1192C24.5049 3.65507 24.9176 4.46672 24.9176 5.47496V3.34919C24.9176 2.34095 24.5049 1.5293 23.1192 1.5293H2.88098Z" fill="white"/>
</mask>
<g mask="url(#mask0_3811_8655)">
<g filter="url(#filter0_f_3811_8655)">
<path d="M2.88098 3.65576C1.49527 3.65576 1.08258 4.46742 1.08258 5.47566V7.60143C1.08258 6.59319 1.49527 5.78153 2.88098 5.78153H23.1192C24.5049 5.78153 24.9176 6.59319 24.9176 7.60143V5.47566C24.9176 4.46742 24.5049 3.65576 23.1192 3.65576H2.88098Z" fill="black" fill-opacity="0.317757"/>
</g>
</g>
<path d="M2.88098 3.65576C1.49527 3.65576 1.08258 4.46742 1.08258 5.47566V7.60143C1.08258 6.59319 1.49527 5.78153 2.88098 5.78153H23.1192C24.5049 5.78153 24.9176 6.59319 24.9176 7.60143V5.47566C24.9176 4.46742 24.5049 3.65576 23.1192 3.65576H2.88098Z" fill="#FCAD00"/>
<mask id="mask1_3811_8655" style="mask-type:luminance" maskUnits="userSpaceOnUse" x="1" y="3" width="24" height="5">
<path d="M2.88098 3.65576C1.49527 3.65576 1.08258 4.46742 1.08258 5.47566V7.60143C1.08258 6.59319 1.49527 5.78153 2.88098 5.78153H23.1192C24.5049 5.78153 24.9176 6.59319 24.9176 7.60143V5.47566C24.9176 4.46742 24.5049 3.65576 23.1192 3.65576H2.88098Z" fill="white"/>
</mask>
<g mask="url(#mask1_3811_8655)">
<g filter="url(#filter1_f_3811_8655)">
<path d="M2.88098 5.78125C1.49527 5.78125 1.08258 6.59291 1.08258 7.60114V9.72692C1.08258 8.71868 1.49527 7.90702 2.88098 7.90702H23.1192C24.5049 7.90702 24.9176 8.71868 24.9176 9.72692V7.60114C24.9176 6.59291 24.5049 5.78125 23.1192 5.78125H2.88098Z" fill="black" fill-opacity="0.313725"/>
</g>
</g>
<path d="M2.88098 5.78125C1.49527 5.78125 1.08258 6.59291 1.08258 7.60114V9.72692C1.08258 8.71868 1.49527 7.90702 2.88098 7.90702H23.1192C24.5049 7.90702 24.9176 8.71868 24.9176 9.72692V7.60114C24.9176 6.59291 24.5049 5.78125 23.1192 5.78125H2.88098Z" fill="#50BE3D"/>
<mask id="mask2_3811_8655" style="mask-type:luminance" maskUnits="userSpaceOnUse" x="1" y="5" width="24" height="5">
<path d="M2.88098 5.78125C1.49527 5.78125 1.08258 6.59291 1.08258 7.60115V9.72692C1.08258 8.71868 1.49527 7.90702 2.88098 7.90702H23.1192C24.5049 7.90702 24.9176 8.71868 24.9176 9.72692V7.60115C24.9176 6.59291 24.5049 5.78125 23.1192 5.78125H2.88098Z" fill="white"/>
</mask>
<g mask="url(#mask2_3811_8655)">
<g filter="url(#filter2_f_3811_8655)">
<path d="M2.88098 7.90723C1.49527 7.90723 1.08258 8.71888 1.08258 9.72712V11.8529C1.08258 10.8447 1.49527 10.033 2.88098 10.033H23.1192C24.5049 10.033 24.9176 10.8447 24.9176 11.8529V9.72712C24.9176 8.71888 24.5049 7.90723 23.1192 7.90723H2.88098Z" fill="black" fill-opacity="0.313725"/>
</g>
</g>
<mask id="mask3_3811_8655" style="mask-type:luminance" maskUnits="userSpaceOnUse" x="1" y="7" width="24" height="7">
<path d="M2.88098 7.90723C1.49527 7.90723 1.08258 8.71888 1.08258 9.72712V9.98484L7.19807 9.99589C8.83189 9.99885 9.50089 10.6413 10.1817 11.5402C10.3551 11.7691 10.566 12.0794 10.772 12.2809C11.387 12.8825 12.1935 13.1831 13.0001 13.1831C13.8066 13.1831 14.6131 12.8825 15.2281 12.2809C15.4341 12.0794 15.645 11.7691 15.8184 11.5402C16.4992 10.6413 17.1682 9.99885 18.8021 9.99589L24.9176 9.98484V9.72712C24.9176 8.71888 24.5049 7.90723 23.1192 7.90723H2.88098Z" fill="white"/>
</mask>
<g mask="url(#mask3_3811_8655)">
<g filter="url(#filter3_f_3811_8655)">
<path d="M2.67015 0.459473C0.919479 0.459472 0 1.5036 0 3.06917V16.9304C0 18.496 0.919479 19.5401 2.67015 19.5401H23.3299C25.0805 19.5401 26 18.496 26 16.9304V3.06917C26 1.5036 25.0805 0.459472 23.3299 0.459473H2.67015ZM2.88092 1.52933H23.1191C24.5048 1.52933 24.9175 2.34099 24.9175 3.34923V9.98426L18.802 9.99531C17.1682 9.99826 16.4992 10.6407 15.8184 11.5396C15.645 11.7685 15.4341 12.0788 15.2281 12.2803C14.6131 12.882 13.8066 13.1825 13 13.1825C12.1935 13.1825 11.387 12.882 10.7719 12.2803C10.566 12.0788 10.355 11.7685 10.1816 11.5396C9.50083 10.6407 8.83183 9.99827 7.19801 9.99531L1.08252 9.98426V3.34923C1.08252 2.34099 1.49521 1.52933 2.88092 1.52933Z" fill="#F26D5F" fill-opacity="0.298039"/>
</g>
</g>
<defs>
<filter id="filter0_f_3811_8655" x="-38.0769" y="-35.5038" width="102.154" height="82.2648" filterUnits="userSpaceOnUse" color-interpolation-filters="sRGB">
<feFlood flood-opacity="0" result="BackgroundImageFix"/>
<feBlend mode="normal" in="SourceGraphic" in2="BackgroundImageFix" result="shape"/>
<feGaussianBlur stdDeviation="19.5798" result="effect1_foregroundBlur_3811_8655"/>
</filter>
<filter id="filter1_f_3811_8655" x="-38.0769" y="-33.3783" width="102.154" height="82.2648" filterUnits="userSpaceOnUse" color-interpolation-filters="sRGB">
<feFlood flood-opacity="0" result="BackgroundImageFix"/>
<feBlend mode="normal" in="SourceGraphic" in2="BackgroundImageFix" result="shape"/>
<feGaussianBlur stdDeviation="19.5798" result="effect1_foregroundBlur_3811_8655"/>
</filter>
<filter id="filter2_f_3811_8655" x="-38.0769" y="-31.2523" width="102.154" height="82.2648" filterUnits="userSpaceOnUse" color-interpolation-filters="sRGB">
<feFlood flood-opacity="0" result="BackgroundImageFix"/>
<feBlend mode="normal" in="SourceGraphic" in2="BackgroundImageFix" result="shape"/>
<feGaussianBlur stdDeviation="19.5798" result="effect1_foregroundBlur_3811_8655"/>
</filter>
<filter id="filter3_f_3811_8655" x="-48.6846" y="-48.2251" width="123.369" height="116.45" filterUnits="userSpaceOnUse" color-interpolation-filters="sRGB">
<feFlood flood-opacity="0" result="BackgroundImageFix"/>
<feBlend mode="normal" in="SourceGraphic" in2="BackgroundImageFix" result="shape"/>
<feGaussianBlur stdDeviation="24.3423" result="effect1_foregroundBlur_3811_8655"/>
</filter>
</defs>
</svg>
