<svg width="25" height="25" viewBox="0 0 25 25" fill="none" xmlns="http://www.w3.org/2000/svg">
<path d="M20.9309 20.557L19.2762 21.0005L18.2994 17.3545C19.072 16.9676 19.6876 16.326 20.0423 15.5381C20.3971 14.7501 20.4692 13.8639 20.2466 13.0289C19.0653 8.62266 16.6109 4.75828 16.5069 4.59609C16.4222 4.46374 16.2981 4.36132 16.1521 4.30328C16.0061 4.24525 15.8455 4.23454 15.6931 4.27266L13.6437 4.78547C13.6437 4.01203 13.6269 3.52641 13.6241 3.46547C13.6166 3.30435 13.5574 3.14994 13.4552 3.02514C13.353 2.90034 13.2133 2.8118 13.0569 2.77266L10.0569 2.02266C9.90445 1.98454 9.7439 1.99525 9.5979 2.05328C9.45189 2.11132 9.32779 2.21374 9.24312 2.34609C9.13906 2.50828 6.68469 6.37078 5.50344 10.7836C5.28081 11.6186 5.35294 12.5048 5.70765 13.2927C6.06236 14.0807 6.67796 14.7223 7.45062 15.1092L6.47375 18.7505L4.81906 18.307C4.62686 18.2556 4.42209 18.2826 4.24979 18.3821C4.07749 18.4816 3.95178 18.6455 3.90031 18.8377C3.84884 19.0299 3.87583 19.2346 3.97535 19.4069C4.07486 19.5792 4.23874 19.7049 4.43094 19.7564L8.93094 20.962C8.99429 20.9787 9.0595 20.9872 9.125 20.9873C9.30711 20.9876 9.48308 20.9215 9.62006 20.8015C9.75705 20.6815 9.84569 20.5158 9.86945 20.3352C9.89321 20.1546 9.85046 19.9716 9.74919 19.8203C9.64791 19.6689 9.49503 19.5596 9.31906 19.5127L7.92219 19.1377L8.89906 15.4917C8.975 15.4964 9.05 15.4992 9.125 15.4992C9.86906 15.4971 10.5958 15.2744 11.2132 14.8592C11.8307 14.444 12.3111 13.855 12.5938 13.1667C12.7044 13.7639 12.8375 14.3686 12.9978 14.9686C13.2124 15.7666 13.6841 16.4715 14.3398 16.9743C14.9955 17.4772 15.7987 17.7499 16.625 17.7502C16.7 17.7502 16.775 17.7502 16.8509 17.7427L17.8278 21.3886L16.4309 21.7636C16.2558 21.8112 16.1038 21.9207 16.0033 22.0718C15.9027 22.2229 15.8603 22.4053 15.884 22.5853C15.9077 22.7652 15.9959 22.9305 16.1321 23.0504C16.2684 23.1703 16.4435 23.2367 16.625 23.2373C16.6905 23.2372 16.7557 23.2287 16.8191 23.212L21.3191 22.0064C21.5113 21.9549 21.6751 21.8292 21.7747 21.6569C21.8742 21.4846 21.9012 21.2799 21.8497 21.0877C21.7982 20.8955 21.6725 20.7316 21.5002 20.6321C21.3279 20.5326 21.1231 20.5056 20.9309 20.557ZM15.5206 5.86172C15.7812 6.30234 16.1984 7.03734 16.6644 7.96734L13.625 8.72859C13.5856 7.79109 13.5894 7.01766 13.6016 6.49828C13.6016 6.44578 13.6062 6.39328 13.6091 6.34078L15.5206 5.86172ZM10.2294 3.61172L12.1391 4.08891C12.1447 4.49016 12.1391 5.08922 12.1194 5.82047C12.1138 5.93391 12.1044 6.11953 12.0978 6.36797C12.0978 6.46172 12.0884 6.55547 12.0828 6.64922L9.00219 5.88422C9.5 4.87547 9.95375 4.07766 10.2294 3.61172ZM18.2037 4.58578C18.1596 4.49764 18.1333 4.40167 18.1263 4.30335C18.1192 4.20503 18.1317 4.10628 18.1628 4.01277C18.194 3.91926 18.2433 3.8328 18.3079 3.75836C18.3725 3.68391 18.4512 3.62293 18.5394 3.57891L20.0394 2.82891C20.1275 2.78483 20.2235 2.75855 20.3218 2.75156C20.4201 2.74458 20.5188 2.75702 20.6123 2.78819C20.7058 2.81935 20.7923 2.86863 20.8667 2.9332C20.9412 2.99778 21.0022 3.07638 21.0462 3.16453C21.0903 3.25268 21.1166 3.34865 21.1236 3.44696C21.1306 3.54526 21.1181 3.64398 21.087 3.73748C21.0558 3.83098 21.0065 3.91742 20.942 3.99187C20.8774 4.06633 20.7988 4.12733 20.7106 4.17141L19.2106 4.92141C19.1225 4.96555 19.0265 4.99188 18.9282 4.9989C18.8299 5.00592 18.7311 4.99348 18.6376 4.96231C18.5441 4.93114 18.4576 4.88184 18.3832 4.81723C18.3088 4.75263 18.2478 4.67398 18.2037 4.58578ZM22.625 7.25016C22.625 7.44907 22.546 7.63983 22.4053 7.78049C22.2647 7.92114 22.0739 8.00016 21.875 8.00016H20.375C20.1761 8.00016 19.9853 7.92114 19.8447 7.78049C19.704 7.63983 19.625 7.44907 19.625 7.25016C19.625 7.05124 19.704 6.86048 19.8447 6.71983C19.9853 6.57917 20.1761 6.50016 20.375 6.50016H21.875C22.0739 6.50016 22.2647 6.57917 22.4053 6.71983C22.546 6.86048 22.625 7.05124 22.625 7.25016ZM3.95375 2.41453C3.99778 2.32634 4.05876 2.24769 4.1332 2.18308C4.20765 2.11847 4.2941 2.06917 4.38761 2.038C4.48113 2.00683 4.57987 1.9944 4.67819 2.00142C4.77651 2.00843 4.87249 2.03477 4.96063 2.07891L6.46063 2.82891C6.54878 2.87298 6.62738 2.93399 6.69195 3.00844C6.75653 3.08289 6.8058 3.16934 6.83697 3.26283C6.86813 3.35633 6.88058 3.45505 6.87359 3.55336C6.86661 3.65166 6.84032 3.74763 6.79625 3.83578C6.75217 3.92393 6.69117 4.00254 6.61672 4.06711C6.54226 4.13168 6.45582 4.18096 6.36232 4.21212C6.1735 4.27507 5.9674 4.26042 5.78937 4.17141L4.28937 3.42141C4.20118 3.37738 4.12253 3.3164 4.05792 3.24195C3.99331 3.16751 3.94401 3.08106 3.91284 2.98754C3.88167 2.89403 3.86924 2.79529 3.87626 2.69696C3.88328 2.59864 3.90961 2.50267 3.95375 2.41453ZM4.625 7.25016H3.125C2.92609 7.25016 2.73532 7.17114 2.59467 7.03049C2.45402 6.88983 2.375 6.69907 2.375 6.50016C2.375 6.30124 2.45402 6.11048 2.59467 5.96983C2.73532 5.82917 2.92609 5.75016 3.125 5.75016H4.625C4.82391 5.75016 5.01468 5.82917 5.15533 5.96983C5.29598 6.11048 5.375 6.30124 5.375 6.50016C5.375 6.69907 5.29598 6.88983 5.15533 7.03049C5.01468 7.17114 4.82391 7.25016 4.625 7.25016Z" fill="white" fill-opacity="0.7"/>
</svg>
