<svg width="31" height="30" viewBox="0 0 31 30" fill="none" xmlns="http://www.w3.org/2000/svg">
<path d="M5.94433 5.73223C5.47549 6.20107 5.2121 6.83696 5.2121 7.5V10C5.2121 10.663 5.47549 11.2989 5.94433 11.7678C6.41317 12.2366 7.04906 12.5 7.7121 12.5H10.2121C10.8751 12.5 11.511 12.2366 11.9799 11.7678C12.4487 11.2989 12.7121 10.663 12.7121 10V7.5C12.7121 6.83696 12.4487 6.20107 11.9799 5.73223C11.511 5.26339 10.8751 5 10.2121 5H7.7121C7.04906 5 6.41317 5.26339 5.94433 5.73223Z" stroke="white" stroke-opacity="0.5" stroke-width="2.5" stroke-linecap="round" stroke-linejoin="round"/>
<path d="M18.4443 5.73223C17.9755 6.20107 17.7121 6.83696 17.7121 7.5V10C17.7121 10.663 17.9755 11.2989 18.4443 11.7678C18.9132 12.2366 19.5491 12.5 20.2121 12.5H22.7121C23.3751 12.5 24.011 12.2366 24.4799 11.7678C24.9487 11.2989 25.2121 10.663 25.2121 10V7.5C25.2121 6.83696 24.9487 6.20107 24.4799 5.73223C24.011 5.26339 23.3751 5 22.7121 5H20.2121C19.5491 5 18.9132 5.26339 18.4443 5.73223Z" stroke="white" stroke-opacity="0.5" stroke-width="2.5" stroke-linecap="round" stroke-linejoin="round"/>
<path d="M5.94433 18.2322C5.47549 18.7011 5.2121 19.337 5.2121 20V22.5C5.2121 23.163 5.47549 23.7989 5.94433 24.2678C6.41317 24.7366 7.04906 25 7.7121 25H10.2121C10.8751 25 11.511 24.7366 11.9799 24.2678C12.4487 23.7989 12.7121 23.163 12.7121 22.5V20C12.7121 19.337 12.4487 18.7011 11.9799 18.2322C11.511 17.7634 10.8751 17.5 10.2121 17.5H7.7121C7.04906 17.5 6.41317 17.7634 5.94433 18.2322Z" stroke="white" stroke-opacity="0.5" stroke-width="2.5" stroke-linecap="round" stroke-linejoin="round"/>
<path d="M18.4443 18.2322C17.9755 18.7011 17.7121 19.337 17.7121 20V22.5C17.7121 23.163 17.9755 23.7989 18.4443 24.2678C18.9132 24.7366 19.5491 25 20.2121 25H22.7121C23.3751 25 24.011 24.7366 24.4799 24.2678C24.9487 23.7989 25.2121 23.163 25.2121 22.5V20C25.2121 19.337 24.9487 18.7011 24.4799 18.2322C24.011 17.7634 23.3751 17.5 22.7121 17.5H20.2121C19.5491 17.5 18.9132 17.7634 18.4443 18.2322Z" stroke="white" stroke-opacity="0.5" stroke-width="2.5" stroke-linecap="round" stroke-linejoin="round"/>
</svg>
