<svg width="27" height="26" viewBox="0 0 27 26" fill="none" xmlns="http://www.w3.org/2000/svg">
<circle cx="13.75" cy="13.0001" r="10.8333" stroke="white" stroke-opacity="0.5" stroke-width="2.25"/>
<path d="M14.8593 15.7734C12.357 16.7743 11.1059 17.2748 10.3913 16.7892C10.2218 16.674 10.0757 16.5279 9.96056 16.3585C9.47495 15.6438 9.9754 14.3927 10.9763 11.8904C11.1898 11.3567 11.2965 11.0899 11.4801 10.8805C11.5269 10.8271 11.5771 10.7769 11.6305 10.7301C11.8399 10.5465 12.1067 10.4398 12.6404 10.2263C15.1427 9.2254 16.3938 8.72495 17.1085 9.21056C17.2779 9.3257 17.424 9.47184 17.5392 9.64128C18.0248 10.3559 17.5243 11.607 16.5234 14.1093C16.3099 14.643 16.2032 14.9099 16.0196 15.1192C15.9728 15.1726 15.9226 15.2228 15.8692 15.2696C15.6599 15.4532 15.393 15.5599 14.8593 15.7734Z" stroke="white" stroke-opacity="0.5" stroke-width="2.25"/>
</svg>
