<svg width="25" height="25" viewBox="0 0 25 25" fill="none" xmlns="http://www.w3.org/2000/svg">
<path fill-rule="evenodd" clip-rule="evenodd" d="M5 6.14286C5 5.83975 5.12041 5.54906 5.33474 5.33474C5.54906 5.12041 5.83975 5 6.14286 5H19.8571C20.1602 5 20.4509 5.12041 20.6653 5.33474C20.8796 5.54906 21 5.83975 21 6.14286C21 6.44596 20.8796 6.73665 20.6653 6.95098C20.4509 7.16531 20.1602 7.28571 19.8571 7.28571H6.14286C5.83975 7.28571 5.54906 7.16531 5.33474 6.95098C5.12041 6.73665 5 6.44596 5 6.14286ZM5 10.7143C5 10.4112 5.12041 10.1205 5.33474 9.90616C5.54906 9.69184 5.83975 9.57143 6.14286 9.57143H19.8571C20.1602 9.57143 20.4509 9.69184 20.6653 9.90616C20.8796 10.1205 21 10.4112 21 10.7143C21 11.0174 20.8796 11.3081 20.6653 11.5224C20.4509 11.7367 20.1602 11.8571 19.8571 11.8571H6.14286C5.83975 11.8571 5.54906 11.7367 5.33474 11.5224C5.12041 11.3081 5 11.0174 5 10.7143ZM5 15.2857C5 14.9826 5.12041 14.6919 5.33474 14.4776C5.54906 14.2633 5.83975 14.1429 6.14286 14.1429H19.8571C20.1602 14.1429 20.4509 14.2633 20.6653 14.4776C20.8796 14.6919 21 14.9826 21 15.2857C21 15.5888 20.8796 15.8795 20.6653 16.0938C20.4509 16.3082 20.1602 16.4286 19.8571 16.4286H6.14286C5.83975 16.4286 5.54906 16.3082 5.33474 16.0938C5.12041 15.8795 5 15.5888 5 15.2857ZM5 19.8571C5 19.554 5.12041 19.2633 5.33474 19.049C5.54906 18.8347 5.83975 18.7143 6.14286 18.7143H19.8571C20.1602 18.7143 20.4509 18.8347 20.6653 19.049C20.8796 19.2633 21 19.554 21 19.8571C21 20.1602 20.8796 20.4509 20.6653 20.6653C20.4509 20.8796 20.1602 21 19.8571 21H6.14286C5.83975 21 5.54906 20.8796 5.33474 20.6653C5.12041 20.4509 5 20.1602 5 19.8571Z" fill="black"/>
</svg>
