<svg width="20" height="21" viewBox="0 0 20 21" fill="none" xmlns="http://www.w3.org/2000/svg">
<path d="M10.2915 20.5001C15.6795 20.3458 20 15.9286 20 10.5021C20 4.9781 15.5228 0.5 10 0.5C4.47715 0.5 0 4.9781 0 10.5021C0 15.4718 3.62367 19.5949 8.3724 20.3724V13.3954H5.83333V10.5041H8.3724V8.30054C8.3724 5.79416 9.86458 4.4091 12.1497 4.4091C13.2435 4.4091 14.388 4.60445 14.388 4.60445V7.06591H13.1263C11.8841 7.06591 11.4974 7.83756 11.4974 8.62874V10.5041H14.2708L13.8275 13.3954H11.4974V20.3851C11.1022 20.4472 10.6999 20.4858 10.2915 20.5001Z" fill="white" fill-opacity="0.5"/>
</svg>
