<svg width="18" height="17" viewBox="0 0 18 17" fill="none" xmlns="http://www.w3.org/2000/svg">
<path d="M7.5 2.5H17.25M7.5 2.5C7.5 2.89782 7.34196 3.27936 7.06066 3.56066C6.77936 3.84196 6.39782 4 6 4C5.60218 4 5.22064 3.84196 4.93934 3.56066C4.65804 3.27936 4.5 2.89782 4.5 2.5M7.5 2.5C7.5 2.10218 7.34196 1.72064 7.06066 1.43934C6.77936 1.15804 6.39782 1 6 1C5.60218 1 5.22064 1.15804 4.93934 1.43934C4.65804 1.72064 4.5 2.10218 4.5 2.5M4.5 2.5H0.75M7.5 14.5H17.25M7.5 14.5C7.5 14.8978 7.34196 15.2794 7.06066 15.5607C6.77936 15.842 6.39782 16 6 16C5.60218 16 5.22064 15.842 4.93934 15.5607C4.65804 15.2794 4.5 14.8978 4.5 14.5M7.5 14.5C7.5 14.1022 7.34196 13.7206 7.06066 13.4393C6.77936 13.158 6.39782 13 6 13C5.60218 13 5.22064 13.158 4.93934 13.4393C4.65804 13.7206 4.5 14.1022 4.5 14.5M4.5 14.5H0.75M13.5 8.5H17.25M13.5 8.5C13.5 8.89782 13.342 9.27936 13.0607 9.56066C12.7794 9.84196 12.3978 10 12 10C11.6022 10 11.2206 9.84196 10.9393 9.56066C10.658 9.27936 10.5 8.89782 10.5 8.5M13.5 8.5C13.5 8.10218 13.342 7.72064 13.0607 7.43934C12.7794 7.15804 12.3978 7 12 7C11.6022 7 11.2206 7.15804 10.9393 7.43934C10.658 7.72064 10.5 8.10218 10.5 8.5M10.5 8.5H0.75" stroke="#F9FAFB" stroke-width="1.5" stroke-linecap="round" stroke-linejoin="round"/>
</svg>
