<svg width="50" height="50" viewBox="0 0 50 50" fill="none" xmlns="http://www.w3.org/2000/svg">
<rect width="50" height="50" rx="12" fill="white"/>
<path fill-rule="evenodd" clip-rule="evenodd" d="M30.8204 33.8693C30.7936 33.2432 32.9222 21.9564 33.1636 20.3823C33.8076 16.304 33.7003 15.991 38.4493 16.1162C38.4672 16.5902 37.6891 20.7043 37.546 21.5003C37.4208 22.2605 35.7662 31.8302 35.6142 32.2952C34.9524 34.3165 32.8953 33.8156 30.8204 33.8693ZM34.2279 14.5779C34.2011 14.1307 34.4336 13.1022 34.5231 12.6192C34.7914 11.2062 35.6947 10.6338 37.1257 10.6338C37.8948 10.6338 38.664 10.6338 39.4242 10.6248C39.4152 11.1614 39.2095 12.1184 39.1022 12.6192C38.6103 15.0251 36.3655 14.5868 34.2279 14.5779ZM19.3099 17.8692C19.8018 17.6366 20.571 16.5097 22.2703 15.9821C26.1965 14.7836 30.5432 16.2682 30.57 21.3661C30.5789 22.7524 29.5594 27.8234 29.2463 29.5853C29.0049 30.9268 28.9512 32.4651 28.1373 33.2432C27.6454 33.7083 27.1267 33.8604 26.3396 33.8693C25.5973 33.8693 24.6493 33.914 23.9338 33.8514C23.9249 33.3774 25.5526 24.3891 25.6689 23.7272C26.5632 18.7456 21.1702 19.2465 19.3278 21.4019C18.3083 22.5824 18.2188 24.0581 17.8879 25.9005C17.5838 27.6088 17.3245 29.2633 16.9935 30.9537C16.5553 33.2075 16.8504 34.1018 15.169 35.0767C14.543 35.4434 11.7436 37.1069 11.3322 37.2589C11.3322 36.7223 11.842 34.227 11.9672 33.4579C12.5307 29.7731 13.3624 25.7843 13.9795 21.9922C14.1852 20.749 14.4804 19.4969 14.6503 18.2537C14.8024 17.0732 15.0707 15.6064 15.3121 14.408C15.9382 11.3671 15.5715 10.3118 20.5442 10.6427L19.3099 17.8692ZM43.8871 11.4119C44.4058 8.70194 42.313 6.26033 39.8803 6.06357C38.4314 5.93836 36.6069 6.03674 35.1223 6.03674L20.8751 6.04568C18.04 6.04568 15.491 5.73266 13.273 7.88807C11.2607 9.84672 11.2428 11.4745 10.6525 14.8015C10.1696 17.4846 9.75815 20.2303 9.23047 22.8329C8.69385 25.4623 8.31822 28.2348 7.81738 30.8911C7.38808 33.1449 6.71731 36.7402 6.38639 38.9224C6.18963 40.2461 5.63513 41.847 6.36851 42.9739C7.084 44.074 8.22878 44.3244 9.61505 43.5552C11.5379 42.491 13.6665 41.1852 15.6341 40.0941C18.1831 38.681 20.1864 38.4484 23.5045 38.4484C26.6616 38.4484 29.8187 38.4395 32.9758 38.4484C36.0793 38.4484 38.0111 37.0801 39.2274 35.1482C39.8893 34.1108 40.1128 32.9034 40.3543 31.4903C40.5869 30.1219 40.8194 28.8698 41.0519 27.4836C41.4991 24.7915 41.991 22.1889 42.474 19.4522C42.948 16.7333 43.3862 14.0681 43.8871 11.4119Z" fill="#FF3A65"/>
</svg>
