<svg width="50" height="50" viewBox="0 0 50 50" fill="none" xmlns="http://www.w3.org/2000/svg">
<path d="M44.9462 50H5.07291C2.26568 50 0 47.7343 0 44.9367V5.06334C0 2.26568 2.26567 0 5.06333 0H44.9366C47.7343 0 50 2.26568 50 5.06334V44.9367C50.0095 47.7343 47.7458 50 44.9481 50H44.9462Z" fill="#D91E3A"/>
<path d="M42.1889 42.1918H12.1897C9.82066 42.1918 7.89941 40.2706 7.89941 37.9016V12.1926C7.89941 9.82358 9.82066 7.90234 12.1897 7.90234H37.9101C40.2792 7.90234 42.2004 9.82358 42.2004 12.1926V42.1918H42.1908H42.1889ZM12.1897 9.25907C10.5727 9.25907 9.25616 10.5737 9.25616 12.1926V37.9131C9.25616 39.53 10.5708 40.8466 12.1897 40.8466H40.8322V12.1945C40.8322 10.5775 39.5175 9.26099 37.8987 9.26099H12.1897V9.25907Z" fill="white"/>
<path d="M13.7979 34.364V15.6377H18.9856L25.0516 25.5749L31.0737 15.6377H36.2614V34.364H30.5207V25.8888L26.4179 32.6839H23.6624L19.5386 26.128V34.364H13.7979Z" fill="white"/>
</svg>
