<svg width="22" height="21" viewBox="0 0 22 21" fill="none" xmlns="http://www.w3.org/2000/svg">
<path fill-rule="evenodd" clip-rule="evenodd" d="M8.12495 3C8.28791 3.00003 8.44643 3.05315 8.57652 3.1513C8.70661 3.24945 8.80119 3.3873 8.84595 3.544L9.65895 6.39C9.834 7.00292 10.1624 7.5611 10.6131 8.01183C11.0638 8.46255 11.622 8.79095 12.2349 8.966L15.0809 9.779C15.2375 9.82386 15.3753 9.91848 15.4733 10.0486C15.5714 10.1786 15.6244 10.3371 15.6244 10.5C15.6244 10.6629 15.5714 10.8214 15.4733 10.9514C15.3753 11.0815 15.2375 11.1761 15.0809 11.221L12.2349 12.034C11.622 12.2091 11.0638 12.5374 10.6131 12.9882C10.1624 13.4389 9.834 13.9971 9.65895 14.61L8.84595 17.456C8.80109 17.6126 8.70647 17.7503 8.57639 17.8484C8.44631 17.9464 8.28784 17.9995 8.12495 17.9995C7.96205 17.9995 7.80359 17.9464 7.67351 17.8484C7.54343 17.7503 7.44881 17.6126 7.40395 17.456L6.59095 14.61C6.4159 13.9971 6.0875 13.4389 5.63678 12.9882C5.18605 12.5374 4.62787 12.2091 4.01495 12.034L1.16895 11.221C1.01235 11.1761 0.874619 11.0815 0.77657 10.9514C0.678522 10.8214 0.625488 10.6629 0.625488 10.5C0.625488 10.3371 0.678522 10.1786 0.77657 10.0486C0.874619 9.91848 1.01235 9.82386 1.16895 9.779L4.01495 8.966C4.62787 8.79095 5.18605 8.46255 5.63678 8.01183C6.0875 7.5611 6.4159 7.00292 6.59095 6.39L7.40395 3.544C7.44871 3.3873 7.54329 3.24945 7.67338 3.1513C7.80347 3.05315 7.96198 3.00003 8.12495 3ZM17.1249 1.16387e-07C17.2923 -9.30612e-05 17.4548 0.0557639 17.5867 0.158686C17.7186 0.261609 17.8123 0.405686 17.8529 0.568L18.1109 1.604C18.3469 2.544 19.0809 3.278 20.0209 3.514L21.0569 3.772C21.2196 3.81228 21.364 3.90586 21.4673 4.0378C21.5705 4.16974 21.6266 4.33246 21.6266 4.5C21.6266 4.66754 21.5705 4.83026 21.4673 4.9622C21.364 5.09414 21.2196 5.18772 21.0569 5.228L20.0209 5.486C19.0809 5.722 18.3469 6.456 18.1109 7.396L17.8529 8.432C17.8127 8.59463 17.7191 8.73908 17.5871 8.84233C17.4552 8.94558 17.2925 9.00168 17.1249 9.00168C16.9574 9.00168 16.7947 8.94558 16.6627 8.84233C16.5308 8.73908 16.4372 8.59463 16.3969 8.432L16.1389 7.396C16.0236 6.93443 15.7849 6.5129 15.4485 6.17648C15.112 5.84005 14.6905 5.60139 14.2289 5.486L13.1929 5.228C13.0303 5.18772 12.8859 5.09414 12.7826 4.9622C12.6794 4.83026 12.6233 4.66754 12.6233 4.5C12.6233 4.33246 12.6794 4.16974 12.7826 4.0378C12.8859 3.90586 13.0303 3.81228 13.1929 3.772L14.2289 3.514C14.6905 3.39861 15.112 3.15995 15.4485 2.82352C15.7849 2.4871 16.0236 2.06557 16.1389 1.604L16.3969 0.568C16.4375 0.405686 16.5313 0.261609 16.6632 0.158686C16.7951 0.0557639 16.9576 -9.30612e-05 17.1249 1.16387e-07ZM15.6249 13.5C15.7825 13.4999 15.936 13.5494 16.0638 13.6415C16.1916 13.7336 16.2872 13.8636 16.3369 14.013L16.7309 15.196C16.8809 15.643 17.2309 15.995 17.6789 16.144L18.8619 16.539C19.0109 16.589 19.1404 16.6845 19.2321 16.8121C19.3239 16.9397 19.3732 17.0929 19.3732 17.25C19.3732 17.4071 19.3239 17.5603 19.2321 17.6879C19.1404 17.8155 19.0109 17.911 18.8619 17.961L17.6789 18.356C17.2319 18.506 16.8799 18.856 16.7309 19.304L16.3359 20.487C16.2859 20.636 16.1904 20.7655 16.0628 20.8572C15.9353 20.9489 15.7821 20.9983 15.6249 20.9983C15.4678 20.9983 15.3146 20.9489 15.1871 20.8572C15.0595 20.7655 14.964 20.636 14.9139 20.487L14.5189 19.304C14.4453 19.0833 14.3213 18.8827 14.1568 18.7182C13.9922 18.5537 13.7917 18.4297 13.5709 18.356L12.3879 17.961C12.239 17.911 12.1095 17.8155 12.0177 17.6879C11.926 17.5603 11.8766 17.4071 11.8766 17.25C11.8766 17.0929 11.926 16.9397 12.0177 16.8121C12.1095 16.6845 12.239 16.589 12.3879 16.539L13.5709 16.144C14.0179 15.994 14.3699 15.644 14.5189 15.196L14.9139 14.013C14.9637 13.8637 15.0591 13.7339 15.1867 13.6418C15.3143 13.5497 15.4676 13.5001 15.6249 13.5Z" fill="white" fill-opacity="0.7"/>
</svg>
