<svg width="16" height="16" viewBox="0 0 16 16" fill="none" xmlns="http://www.w3.org/2000/svg">
<g clip-path="url(#clip0_572_5794)">
<path fill-rule="evenodd" clip-rule="evenodd" d="M0.576285 10.475C0.294981 10.1937 0.136945 9.81213 0.136945 9.41431C0.136945 9.01648 0.294981 8.63495 0.576285 8.35365L8.35446 0.575472C8.63576 0.294168 9.0173 0.136132 9.41512 0.136132C9.81294 0.136132 10.1945 0.294167 10.4758 0.575472L11.1829 1.28258C11.378 1.47774 11.3717 1.7924 11.2303 2.02999C11.0034 2.41215 10.9103 2.85899 10.9656 3.29996C11.0209 3.74094 11.2216 4.15092 11.5358 4.46518C11.8501 4.77944 12.2601 4.98007 12.701 5.03541C13.142 5.09074 13.5888 4.99761 13.971 4.77074C14.2086 4.62931 14.5233 4.62295 14.7184 4.81811L15.4255 5.52522C15.7068 5.80652 15.8649 6.18806 15.8649 6.58588C15.8649 6.9837 15.7068 7.36524 15.4255 7.64654L7.64735 15.4247C7.36605 15.706 6.98452 15.8641 6.58669 15.8641C6.18887 15.8641 5.80734 15.706 5.52603 15.4247L4.81893 14.7176C4.62376 14.5224 4.63013 14.2078 4.77155 13.9702C4.99843 13.588 5.09155 13.1412 5.03622 12.7002C4.98089 12.2592 4.78025 11.8493 4.46599 11.535C4.15173 11.2207 3.74175 11.0201 3.30078 10.9648C2.8598 10.9094 2.41296 11.0026 2.0308 11.2294C1.79322 11.3709 1.47855 11.3772 1.28339 11.1821L0.576285 10.475ZM7.82413 4.99489C7.68348 4.85424 7.60446 4.66347 7.60446 4.46456C7.60446 4.26565 7.68348 4.07488 7.82413 3.93423C7.96478 3.79358 8.15555 3.71456 8.35446 3.71456C8.55337 3.71456 8.74414 3.79358 8.88479 3.93423L9.5919 4.64134C9.73255 4.78199 9.81157 4.97275 9.81157 5.17167C9.81157 5.37058 9.73255 5.56134 9.5919 5.702C9.45124 5.84265 9.26048 5.92167 9.06157 5.92167C8.86265 5.92167 8.67189 5.84265 8.53124 5.702L7.82413 4.99489ZM10.299 6.4091C10.1584 6.54976 10.0793 6.74052 10.0793 6.93943C10.0793 7.13835 10.1584 7.32911 10.299 7.46976L11.0061 8.17687C11.1468 8.31752 11.3375 8.39654 11.5364 8.39654C11.7354 8.39654 11.9261 8.31752 12.0668 8.17687C12.2074 8.03622 12.2864 7.84545 12.2864 7.64654C12.2864 7.44763 12.2074 7.25686 12.0668 7.11621L11.3597 6.4091C11.219 6.26845 11.0282 6.18943 10.8293 6.18943C10.6304 6.18943 10.4397 6.26845 10.299 6.4091Z" fill="white"/>
</g>
<defs>
<clipPath id="clip0_572_5794">
<rect width="16" height="16" fill="white"/>
</clipPath>
</defs>
</svg>
