<svg width="50" height="50" viewBox="0 0 50 50" fill="none" xmlns="http://www.w3.org/2000/svg">
<rect width="50" height="50" rx="12" fill="white"/>
<path d="M32.6711 13.1689L39.2927 16.9881H39.2957C40.0448 17.422 40.6367 17.9636 41.0467 18.6376C41.4567 19.3146 41.6755 20.1117 41.6663 21.0442V28.6825C41.6632 29.5503 41.4875 30.3351 41.1083 31.0244C40.7292 31.7138 40.1496 32.2985 39.3327 32.757L39.3358 32.7601L36.0004 34.6805H35.9973L32.7019 36.5793V36.5823C31.9528 37.0101 31.1853 37.2532 30.3961 37.2686C29.6039 37.2871 28.8024 37.0747 27.9978 36.6008L25.9139 35.3975L26.9127 34.7943L28.5126 35.7176H28.5188C29.1569 36.093 29.7734 36.2592 30.3745 36.2469C30.9818 36.2346 31.586 36.0376 32.1933 35.6929L38.821 31.8738L38.8272 31.8707C39.4653 31.5107 39.9184 31.0583 40.2113 30.5289C40.5041 29.9965 40.6398 29.3749 40.6398 28.6825V21.038C40.649 20.2994 40.4826 19.6839 40.1712 19.1669C39.8568 18.6499 39.3851 18.2221 38.7809 17.8744V17.8713L32.1532 14.0522L32.1471 14.0491C31.512 13.6767 30.8955 13.5105 30.2913 13.5228C29.6871 13.5352 29.0829 13.729 28.4756 14.0768L25.1802 15.9725H25.1833L21.8479 17.8959L21.8417 17.899C21.2005 18.2591 20.7505 18.7084 20.4576 19.2377C20.1648 19.7732 20.0291 20.3918 20.0291 21.0873V21.2996H19.0026V21.0873C19.0057 20.2194 19.1814 19.4347 19.5575 18.7453C19.9397 18.056 20.5193 17.4712 21.3331 17.0096L24.6685 15.0893L27.9639 13.1874C28.7161 12.7566 29.4836 12.5165 30.2728 12.5011C31.065 12.4827 31.8634 12.6919 32.6711 13.1689Z" fill="url(#paint0_linear_8614_795)"/>
<path d="M22.002 13.1689L24.3449 14.5199L23.2998 15.0985L21.4872 14.0522L21.4811 14.0491C20.843 13.6767 20.2264 13.5105 19.6253 13.5228C19.018 13.5352 18.4138 13.729 17.8065 14.0768L14.5112 15.9725H14.5143L11.1788 17.8959L11.1727 17.899C10.5346 18.2591 10.0814 18.7084 9.78855 19.2377C9.49569 19.7732 9.36006 20.3918 9.36006 21.0873V28.7317C9.35081 29.4703 9.51727 30.0858 9.82862 30.5997C10.1431 31.1198 10.6147 31.5445 11.2189 31.8953L14.5143 33.7941H14.5112L17.8435 35.7176H17.8497C18.4878 36.093 19.1043 36.2592 19.7055 36.2469C20.3127 36.2346 20.9169 36.0376 21.5242 35.6929L24.8196 33.7941H24.8165L28.1519 31.8738L28.1581 31.8707C28.7993 31.5107 29.2494 31.0583 29.5422 30.5289C29.8351 29.9965 29.9707 29.3749 29.9707 28.6825V28.4393H30.9972V28.6825C30.9941 29.5503 30.8184 30.3351 30.4423 31.0244C30.0601 31.7138 29.4806 32.2985 28.6637 32.757L28.6667 32.7601L22.0359 36.5793V36.5823C21.2838 37.0101 20.5162 37.2532 19.727 37.2686C18.9348 37.2871 18.1333 37.0747 17.3287 36.6008L14.0025 34.6805H13.9995L10.7041 32.7817C9.95501 32.3477 9.36314 31.803 8.95315 31.1291C8.54315 30.452 8.32429 29.658 8.33353 28.7225V21.0873C8.33662 20.2194 8.51233 19.4347 8.88841 18.7453C9.27066 18.056 9.8502 17.4712 10.6671 17.0096H10.664L13.9995 15.0893H14.0025L17.2948 13.1874C18.047 12.7566 18.8146 12.5165 19.6037 12.5011C20.396 12.4827 21.1975 12.6919 22.002 13.1689Z" fill="url(#paint1_linear_8614_795)"/>
<path fill-rule="evenodd" clip-rule="evenodd" d="M34.7273 23.2908C34.8352 23.697 34.8845 23.6354 35.1373 24.0293L36.5214 26.2451C36.3241 26.6637 35.9418 27.153 35.7754 27.5869L36.583 27.59C36.9375 26.9745 38.9937 23.6416 39.0584 23.2908L38.2816 23.3061C38.0565 23.5954 37.8099 24.054 37.6342 24.3648C37.4616 24.6633 37.1687 25.2603 36.9067 25.4358C36.8111 25.1249 35.8432 23.5923 35.5719 23.3L34.7273 23.2908ZM22.4984 26.4575C22.5631 25.2326 22.1562 23.9463 23.6636 23.9463C25.094 23.9463 24.6624 25.3773 24.7271 26.4821L25.4978 26.4544C25.541 25.565 25.6211 24.214 25.1217 23.6724C24.6778 23.1923 23.1889 22.9553 22.6463 23.5923L22.4614 23.2938L21.7246 23.3061L21.7308 26.479L22.4984 26.4575ZM17.936 25.048C17.7357 23.6477 20.2449 23.6108 20.4484 24.7433C20.5655 25.3865 19.9798 25.765 19.3756 25.8235C18.756 25.882 18.0193 25.605 17.936 25.048ZM17.1993 25.1311C17.3226 26.0574 18.269 26.6206 19.3726 26.5621C20.3991 26.5067 21.3054 25.8081 21.1944 24.7064C20.9848 22.626 16.8818 22.7276 17.1993 25.1311ZM31.2439 24.9618C31.1606 23.6601 33.6822 23.6077 33.7871 24.7956C33.9073 26.1497 31.3148 26.1343 31.2439 24.9618ZM33.6021 23.5185C32.3012 22.6937 30.4393 23.5031 30.5071 24.9618C30.5842 26.6113 32.7667 26.8822 33.6021 26.2421C33.9412 26.5252 33.6391 26.4975 34.5238 26.4667L34.4899 23.3031C33.7501 23.2661 33.8888 23.2631 33.6853 23.4231L33.6021 23.5185ZM27.7574 23.9709C29.4775 23.6847 29.9584 25.5065 28.4417 25.7989C26.7 26.1374 26.1421 24.2417 27.7574 23.9709ZM26.8634 26.2051C27.5909 26.5283 28.1026 26.7498 28.9781 26.4175C29.5731 26.1867 30.0632 25.7497 30.1002 24.9618C30.1711 23.4939 28.3123 22.7183 27.0021 23.5185C26.7309 23.2784 26.9035 23.2569 26.0866 23.3L26.102 27.5869L26.8727 27.5623L26.8634 26.2051ZM11.7276 26.4759C11.7985 25.4358 11.3885 23.9616 12.6092 23.9493C13.7436 23.937 13.3521 25.5004 13.4107 26.4821L14.1814 26.4513C14.2029 25.922 14.1444 25.2942 14.1968 24.7864C14.2553 24.1986 14.465 23.9463 15.0938 23.9463C16.2252 23.9493 15.809 25.5373 15.883 26.4821L16.6444 26.4852C16.7246 25.5742 16.8232 24.1832 16.256 23.6293C15.4391 22.8291 14.542 23.2815 13.9008 23.7431C12.9606 22.7214 12.0389 23.5462 11.7861 23.4077C11.7707 23.4015 11.7152 23.3677 11.6937 23.3585C11.595 23.3185 11.6752 23.3277 11.4964 23.3C11.3546 23.2754 11.0895 23.2908 10.9415 23.2908L10.9631 26.4852L11.7276 26.4759Z" fill="#3C018C"/>
<defs>
<linearGradient id="paint0_linear_8614_795" x1="24.9999" y1="12.5" x2="24.9999" y2="37.2697" gradientUnits="userSpaceOnUse">
<stop stop-color="#627FFF"/>
<stop offset="0.5" stop-color="#548AFE"/>
<stop offset="1" stop-color="#0DCAFF"/>
</linearGradient>
<linearGradient id="paint1_linear_8614_795" x1="24.9999" y1="12.5" x2="24.9999" y2="37.2697" gradientUnits="userSpaceOnUse">
<stop stop-color="#01D7FE"/>
<stop offset="0.5" stop-color="#657DFF"/>
<stop offset="1" stop-color="#6F72FF"/>
</linearGradient>
</defs>
</svg>
