<svg width="20" height="22" viewBox="0 0 20 22" fill="none" xmlns="http://www.w3.org/2000/svg">
<path d="M10.378 0.602222C10.2633 0.535276 10.1328 0.5 10 0.5C9.86717 0.5 9.73672 0.535276 9.622 0.602222L1 5.63222L10 10.8822L19 5.63222L10.378 0.602222ZM19.75 6.93022L10.75 12.1802V21.1802L19.378 16.1482C19.4912 16.0821 19.5852 15.9875 19.6504 15.8738C19.7157 15.7601 19.75 15.6313 19.75 15.5002V6.93022ZM9.25 21.1802V12.1802L0.25 6.93022V15.5002C0.249961 15.6313 0.284289 15.7601 0.34956 15.8738C0.414832 15.9875 0.508767 16.0821 0.622 16.1482L9.25 21.1802Z" fill="#E5E5E5"/>
</svg>
