<svg width="81" height="80" viewBox="0 0 81 80" fill="none" xmlns="http://www.w3.org/2000/svg">
<rect x="0.339844" width="80" height="80" rx="16" fill="url(#paint0_linear_1176_4773)"/>
<rect x="0.839844" y="0.5" width="79" height="79" rx="15.5" stroke="white" stroke-opacity="0.1"/>
<path opacity="0.4" d="M53.4168 36.7034V50.4075C53.3593 55.87 51.8643 57.25 46.1718 57.25H28.0786C22.2902 57.25 20.8335 55.8125 20.8335 50.1009V36.7034C20.8335 31.5284 22.041 29.8609 26.5835 29.5925C27.0435 29.5734 27.5419 29.5542 28.0786 29.5542H46.1718C51.9601 29.5542 53.4168 30.9917 53.4168 36.7034Z" fill="#292D32"/>
<path d="M59.1668 29.8992V43.2967C59.1668 48.4717 57.9593 50.1392 53.4168 50.4075V36.7033C53.4168 30.9917 51.9601 29.5542 46.1718 29.5542H28.0786C27.5419 29.5542 27.0435 29.5733 26.5835 29.5925C26.641 24.13 28.1361 22.75 33.8286 22.75H51.9218C57.7101 22.75 59.1668 24.1875 59.1668 29.8992Z" fill="#292D32"/>
<path d="M30.3402 52.5732H27.0435C26.2576 52.5732 25.606 51.9216 25.606 51.1357C25.606 50.3499 26.2576 49.6982 27.0435 49.6982H30.3402C31.126 49.6982 31.7777 50.3499 31.7777 51.1357C31.7777 51.9216 31.1452 52.5732 30.3402 52.5732Z" fill="#292D32"/>
<path d="M41.0543 52.5732H34.4609C33.6751 52.5732 33.0234 51.9216 33.0234 51.1357C33.0234 50.3499 33.6751 49.6982 34.4609 49.6982H41.0543C41.8401 49.6982 42.4918 50.3499 42.4918 51.1357C42.4918 51.9216 41.8593 52.5732 41.0543 52.5732Z" fill="#292D32"/>
<path d="M53.4168 39.7317H20.8335V42.6067H53.4168V39.7317Z" fill="#292D32"/>
<defs>
<linearGradient id="paint0_linear_1176_4773" x1="21.5" y1="15" x2="68" y2="69.5" gradientUnits="userSpaceOnUse">
<stop stop-color="white"/>
<stop offset="1" stop-color="#D1D1D1"/>
</linearGradient>
</defs>
</svg>
