<svg width="24" height="24" viewBox="0 0 24 24" fill="none" xmlns="http://www.w3.org/2000/svg">
<path fill-rule="evenodd" clip-rule="evenodd" d="M7.32129 9.3026C7.32129 6.72268 9.4044 4.62427 11.9996 4.62427C14.5818 4.62427 16.678 6.72045 16.678 9.3026V9.30896C16.6637 11.824 14.6846 13.8837 12.168 13.9694C12.1117 13.9714 12.0555 13.9691 11.9996 13.9626C11.9438 13.9691 11.8875 13.9714 11.8313 13.9694C9.32037 13.8838 7.32129 11.8283 7.32129 9.3026ZM11.9996 6.87427C10.6515 6.87427 9.57129 7.96085 9.57129 9.3026C9.57129 10.5902 10.5715 11.641 11.8434 11.7177C11.9449 11.7104 12.0523 11.7098 12.1588 11.7175C13.4226 11.6396 14.419 10.5949 14.428 9.29945C14.4262 7.96138 13.3381 6.87427 11.9996 6.87427Z" fill="white" fill-opacity="0.5"/>
<path fill-rule="evenodd" clip-rule="evenodd" d="M12.0003 0.041748C5.39592 0.041748 0.0419922 5.39568 0.0419922 12.0001C0.0419922 18.6045 5.39592 23.9584 12.0003 23.9584C18.6047 23.9584 23.9587 18.6045 23.9587 12.0001C23.9587 5.39568 18.6047 0.041748 12.0003 0.041748ZM2.29199 12.0001C2.29199 6.63832 6.63856 2.29175 12.0003 2.29175C17.3621 2.29175 21.7087 6.63832 21.7087 12.0001C21.7087 14.228 20.9582 16.2806 19.6963 17.9189C19.2807 17.2929 18.7066 16.7339 18.0121 16.2666L18.0097 16.2649C16.3118 15.1289 14.1308 14.5962 12.008 14.5962C9.88492 14.5962 7.70029 15.129 5.99328 16.2628L5.98768 16.2666C5.29339 16.7338 4.71943 17.2925 4.30386 17.9183C3.04225 16.2801 2.29199 14.2277 2.29199 12.0001ZM13.3061 21.6213C12.8792 21.6787 12.4432 21.7083 11.9999 21.7083C11.032 21.7083 10.0987 21.5672 9.21841 21.304C8.01533 20.9442 6.91108 20.3563 5.95216 19.5886C6.14573 19.1129 6.54763 18.6024 7.24101 18.1352C8.50209 17.2986 10.2271 16.8462 12.008 16.8462C13.7901 16.8462 15.5085 17.2991 16.7572 18.1341C17.4516 18.6016 17.8539 19.1125 18.0477 19.5886C16.8735 20.5286 15.4815 21.1991 13.9569 21.5112C13.7425 21.5551 13.5255 21.5919 13.3061 21.6213Z" fill="white" fill-opacity="0.5"/>
</svg>
