<svg width="60" height="60" viewBox="0 0 60 60" fill="none" xmlns="http://www.w3.org/2000/svg">
<rect width="60" height="60" rx="30" fill="#262626" fill-opacity="0.5"/>
<path fill-rule="evenodd" clip-rule="evenodd" d="M37.75 38.25C37.75 37.6977 37.3023 37.25 36.75 37.25C36.1977 37.25 35.75 37.6977 35.75 38.25V40.25H33.75C33.1977 40.25 32.75 40.6977 32.75 41.25C32.75 41.8023 33.1977 42.25 33.75 42.25H35.75V44.25C35.75 44.8023 36.1977 45.25 36.75 45.25C37.3023 45.25 37.75 44.8023 37.75 44.25V42.25H39.75C40.3023 42.25 40.75 41.8023 40.75 41.25C40.75 40.6977 40.3023 40.25 39.75 40.25H37.75V38.25Z" fill="url(#paint0_linear_6008_10222)"/>
<path d="M30.2399 28.305C30.0899 28.29 29.9099 28.29 29.7449 28.305C26.1749 28.185 23.3399 25.26 23.3399 21.66C23.3249 17.985 26.3099 15 29.9849 15C33.6599 15 36.6449 17.985 36.6449 21.66C36.6449 25.26 33.7949 28.185 30.2399 28.305Z" stroke="url(#paint1_linear_6008_10222)" stroke-width="2" stroke-linecap="round" stroke-linejoin="round"/>
<path d="M29.9855 44.715C27.2555 44.715 24.5405 44.025 22.4705 42.645C18.8405 40.215 18.8405 36.255 22.4705 33.84C26.5955 31.08 33.3605 31.08 37.4855 33.84" stroke="url(#paint2_linear_6008_10222)" stroke-width="2" stroke-linecap="round" stroke-linejoin="round"/>
<defs>
<linearGradient id="paint0_linear_6008_10222" x1="31.6791" y1="36.45" x2="41.8675" y2="38.2184" gradientUnits="userSpaceOnUse">
<stop stop-color="#2AD0CA"/>
<stop offset="0.203455" stop-color="#E1F664"/>
<stop offset="0.401848" stop-color="#EFB0FE"/>
<stop offset="0.615048" stop-color="#ABB3FC"/>
<stop offset="0.823232" stop-color="#5DF7A4"/>
<stop offset="1" stop-color="#58C4F6"/>
</linearGradient>
<linearGradient id="paint1_linear_6008_10222" x1="21.5589" y1="13.6695" x2="38.5035" y2="16.6105" gradientUnits="userSpaceOnUse">
<stop stop-color="#2AD0CA"/>
<stop offset="0.203455" stop-color="#E1F664"/>
<stop offset="0.401848" stop-color="#EFB0FE"/>
<stop offset="0.615048" stop-color="#ABB3FC"/>
<stop offset="0.823232" stop-color="#5DF7A4"/>
<stop offset="1" stop-color="#58C4F6"/>
</linearGradient>
<linearGradient id="paint2_linear_6008_10222" x1="17.3737" y1="30.4755" x2="39.3981" y2="35.7135" gradientUnits="userSpaceOnUse">
<stop stop-color="#2AD0CA"/>
<stop offset="0.203455" stop-color="#E1F664"/>
<stop offset="0.401848" stop-color="#EFB0FE"/>
<stop offset="0.615048" stop-color="#ABB3FC"/>
<stop offset="0.823232" stop-color="#5DF7A4"/>
<stop offset="1" stop-color="#58C4F6"/>
</linearGradient>
</defs>
</svg>
