<svg width="25" height="25" viewBox="0 0 25 25" fill="none" xmlns="http://www.w3.org/2000/svg">
<path d="M22.0959 9.29469L20.7516 4.5875C20.6611 4.27523 20.4721 4.00059 20.2128 3.80459C19.9534 3.60858 19.6376 3.50174 19.3125 3.5H5.4375C5.11241 3.50174 4.7966 3.60858 4.53723 3.80459C4.27787 4.00059 4.08886 4.27523 3.99844 4.5875L2.65406 9.29469C2.63484 9.36143 2.62506 9.43054 2.625 9.5V11C2.625 11.5822 2.76054 12.1563 3.0209 12.6771C3.28125 13.1978 3.65926 13.6507 4.125 14V20.75C4.125 20.9489 4.20402 21.1397 4.34467 21.2803C4.48532 21.421 4.67609 21.5 4.875 21.5H19.875C20.0739 21.5 20.2647 21.421 20.4053 21.2803C20.546 21.1397 20.625 20.9489 20.625 20.75V14C21.0907 13.6507 21.4687 13.1978 21.7291 12.6771C21.9895 12.1563 22.125 11.5822 22.125 11V9.5C22.1249 9.43054 22.1152 9.36143 22.0959 9.29469ZM8.625 11C8.62486 11.3869 8.52496 11.7673 8.33493 12.1043C8.1449 12.4413 7.87117 12.7236 7.54018 12.924C7.20919 13.1244 6.83213 13.236 6.44541 13.2481C6.05868 13.2602 5.67537 13.1724 5.3325 12.9931C5.28033 12.9525 5.22294 12.9191 5.16188 12.8937C4.84413 12.6903 4.58264 12.4103 4.40145 12.0794C4.22027 11.7484 4.1252 11.3773 4.125 11V10.25H8.625V11ZM14.625 11C14.625 11.5967 14.3879 12.169 13.966 12.591C13.544 13.0129 12.9717 13.25 12.375 13.25C11.7783 13.25 11.206 13.0129 10.784 12.591C10.3621 12.169 10.125 11.5967 10.125 11V10.25H14.625V11ZM20.625 11C20.6247 11.3774 20.5295 11.7486 20.3481 12.0795C20.1668 12.4104 19.9051 12.6904 19.5872 12.8937C19.5269 12.9191 19.4702 12.9522 19.4184 12.9922C19.0756 13.1716 18.6923 13.2596 18.3055 13.2477C17.9187 13.2357 17.5416 13.1242 17.2105 12.924C16.8794 12.7237 16.6055 12.4414 16.4154 12.1044C16.2252 11.7673 16.1252 11.387 16.125 11V10.25H20.625V11Z" fill="white" fill-opacity="0.7"/>
</svg>
