<svg width="50" height="50" viewBox="0 0 50 50" fill="none" xmlns="http://www.w3.org/2000/svg">
<rect width="50" height="50" rx="12" fill="url(#paint0_linear_8612_899)"/>
<path d="M6.74219 43.7664L6.85895 43.6465L11.9123 38.4493C8.79288 35.4136 6.82569 31.3881 6.34751 27.0618C5.86933 22.7355 6.90988 18.3775 9.29103 14.7339C11.6722 11.0903 15.2458 8.38776 19.4002 7.0889C23.5545 5.79004 28.0312 5.97567 32.0637 7.614C36.0962 9.25234 39.4339 12.2415 41.5052 16.0697C43.5765 19.8979 44.2527 24.3271 43.418 28.5989C42.5833 32.8708 40.2896 36.7197 36.9296 39.4866C33.5696 42.2536 29.3523 43.7665 24.9996 43.7664H6.74219Z" stroke="white" stroke-width="3" stroke-linecap="round" stroke-linejoin="round"/>
<path d="M21.7333 18.8945H16.8628C16.6888 18.8991 16.5158 18.8686 16.3539 18.8048C16.1919 18.741 16.0445 18.6452 15.9202 18.5232C15.7958 18.4011 15.6973 18.2553 15.6303 18.0943C15.5632 17.9334 15.5292 17.7605 15.53 17.5861V16.3085C15.5388 15.9595 15.6829 15.6276 15.9317 15.3833C16.1806 15.139 16.5145 15.0016 16.8628 15.0001H31.6671C31.8403 14.9982 32.0122 15.0305 32.173 15.0953C32.3337 15.16 32.4802 15.2559 32.6039 15.3774C32.7277 15.4989 32.8264 15.6437 32.8943 15.8034C32.9622 15.9632 32.9981 16.1348 32.9998 16.3085V17.5851C32.991 17.9341 32.847 18.266 32.5981 18.5103C32.3493 18.7545 32.0154 18.892 31.6671 18.8935H26.8284C26.6729 18.8918 26.5228 18.9508 26.4099 19.058C26.297 19.1652 26.2302 19.3123 26.2235 19.4681V21.0324C26.2235 21.0324 28.77 20.3623 29.0253 20.2986C29.1905 20.2498 29.3636 20.2343 29.5348 20.2529C29.706 20.2716 29.8718 20.3239 30.0227 20.407C30.1736 20.4901 30.3067 20.6023 30.4142 20.7372C30.5217 20.872 30.6015 21.0269 30.6491 21.1928C30.7445 21.6039 30.8716 22.0222 30.968 22.4056C31.01 22.5733 31.0186 22.7477 30.9933 22.9188C30.9681 23.0898 30.9094 23.2542 30.8206 23.4025C30.7318 23.5508 30.6148 23.68 30.4761 23.7829C30.3374 23.8857 30.1799 23.9601 30.0125 24.0018L29.5666 24.1612L26.2235 25.0554V26.8109C27.1462 26.556 28.1016 26.297 29.0253 26.077C29.1905 26.0283 29.3636 26.0128 29.5348 26.0314C29.706 26.05 29.8718 26.1024 30.0227 26.1855C30.1736 26.2686 30.3067 26.3808 30.4142 26.5157C30.5217 26.6505 30.6015 26.8054 30.6491 26.9713C30.7763 27.3824 30.8716 27.8007 30.968 28.1841C31.01 28.3518 31.0186 28.5262 30.9933 28.6973C30.9681 28.8683 30.9094 29.0327 30.8206 29.181C30.7318 29.3293 30.6148 29.4585 30.4761 29.5614C30.3374 29.6642 30.1799 29.7386 30.0125 29.7803L26.1917 30.802V34.2175C26.1902 34.5666 26.0531 34.9015 25.8095 35.1509C25.5658 35.4004 25.2348 35.5448 24.8867 35.5537H23.6124C23.4392 35.5519 23.268 35.516 23.1087 35.4479C22.9493 35.3797 22.8049 35.2808 22.6837 35.1567C22.5625 35.0326 22.4669 34.8858 22.4023 34.7247C22.3378 34.5635 22.3055 34.3912 22.3074 34.2175V31.8535L19.5056 32.5873C19.1639 32.6796 18.7997 32.6346 18.4905 32.4618C18.1813 32.2891 17.9515 32.0022 17.85 31.6623C17.7546 31.2512 17.6275 30.8647 17.5312 30.4494C17.4521 30.111 17.5076 29.7551 17.686 29.4571C17.8644 29.159 18.1516 28.9424 18.4866 28.8532C19.7599 28.5017 21.0331 28.1831 22.3074 27.8316V26.076L19.5056 26.8099C19.1678 26.9084 18.805 26.8698 18.4952 26.7026C18.1855 26.5353 17.9538 26.2527 17.85 25.9157C17.7546 25.5045 17.6275 25.0862 17.5312 24.7028C17.4521 24.3644 17.5076 24.0085 17.686 23.7104C17.8644 23.4124 18.1516 23.1958 18.4866 23.1066C19.7599 22.7869 21.0331 22.4365 22.3074 22.0849V19.4732C22.3104 19.3969 22.2977 19.3209 22.27 19.2498C22.2422 19.1787 22.2001 19.1141 22.1463 19.0602C22.0925 19.0062 22.0281 18.964 21.9572 18.9362C21.8863 18.9084 21.8104 18.8956 21.7343 18.8987L21.7333 18.8945Z" fill="white"/>
<defs>
<linearGradient id="paint0_linear_8612_899" x1="25" y1="0" x2="25" y2="50" gradientUnits="userSpaceOnUse">
<stop stop-color="#0297D8"/>
<stop offset="1" stop-color="#18BBCA"/>
</linearGradient>
</defs>
</svg>
