<svg width="25" height="25" viewBox="0 0 25 25" fill="none" xmlns="http://www.w3.org/2000/svg">
<path fill-rule="evenodd" clip-rule="evenodd" d="M2.125 6.875C2.125 5.839 2.965 5 4 5H21.25C22.285 5 23.125 5.84 23.125 6.875V9.901C23.1251 10.0327 23.0905 10.1622 23.0246 10.2763C22.9588 10.3904 22.8641 10.4851 22.75 10.551C22.4075 10.7482 22.123 11.0322 21.9252 11.3744C21.7274 11.7165 21.6232 12.1048 21.6232 12.5C21.6232 12.8952 21.7274 13.2835 21.9252 13.6256C22.123 13.9678 22.4075 14.2518 22.75 14.449C22.8641 14.5149 22.9588 14.6096 23.0246 14.7237C23.0905 14.8378 23.1251 14.9673 23.125 15.099V18.125C23.125 19.16 22.285 20 21.25 20H4C3.50272 20 3.02581 19.8025 2.67418 19.4508C2.32254 19.0992 2.125 18.6223 2.125 18.125V15.099C2.12481 14.9674 2.15928 14.838 2.22493 14.7239C2.29058 14.6098 2.3851 14.515 2.499 14.449C2.84151 14.2518 3.12599 13.9678 3.32381 13.6256C3.52162 13.2835 3.62577 12.8952 3.62577 12.5C3.62577 12.1048 3.52162 11.7165 3.32381 11.3744C3.12599 11.0322 2.84151 10.7482 2.499 10.551C2.3851 10.485 2.29058 10.3902 2.22493 10.2761C2.15928 10.162 2.12481 10.0326 2.125 9.901V6.875ZM17.125 5.75C17.3239 5.75 17.5147 5.82902 17.6553 5.96967C17.796 6.11032 17.875 6.30109 17.875 6.5V7.25C17.875 7.44891 17.796 7.63968 17.6553 7.78033C17.5147 7.92098 17.3239 8 17.125 8C16.9261 8 16.7353 7.92098 16.5947 7.78033C16.454 7.63968 16.375 7.44891 16.375 7.25V6.5C16.375 6.30109 16.454 6.11032 16.5947 5.96967C16.7353 5.82902 16.9261 5.75 17.125 5.75ZM17.875 10.25C17.875 10.0511 17.796 9.86032 17.6553 9.71967C17.5147 9.57902 17.3239 9.5 17.125 9.5C16.9261 9.5 16.7353 9.57902 16.5947 9.71967C16.454 9.86032 16.375 10.0511 16.375 10.25V11C16.375 11.1989 16.454 11.3897 16.5947 11.5303C16.7353 11.671 16.9261 11.75 17.125 11.75C17.3239 11.75 17.5147 11.671 17.6553 11.5303C17.796 11.3897 17.875 11.1989 17.875 11V10.25ZM17.125 13.25C17.3239 13.25 17.5147 13.329 17.6553 13.4697C17.796 13.6103 17.875 13.8011 17.875 14V14.75C17.875 14.9489 17.796 15.1397 17.6553 15.2803C17.5147 15.421 17.3239 15.5 17.125 15.5C16.9261 15.5 16.7353 15.421 16.5947 15.2803C16.454 15.1397 16.375 14.9489 16.375 14.75V14C16.375 13.8011 16.454 13.6103 16.5947 13.4697C16.7353 13.329 16.9261 13.25 17.125 13.25ZM17.875 17.75C17.875 17.5511 17.796 17.3603 17.6553 17.2197C17.5147 17.079 17.3239 17 17.125 17C16.9261 17 16.7353 17.079 16.5947 17.2197C16.454 17.3603 16.375 17.5511 16.375 17.75V18.5C16.375 18.6989 16.454 18.8897 16.5947 19.0303C16.7353 19.171 16.9261 19.25 17.125 19.25C17.3239 19.25 17.5147 19.171 17.6553 19.0303C17.796 18.8897 17.875 18.6989 17.875 18.5V17.75ZM6.625 12.5C6.625 12.3011 6.70402 12.1103 6.84467 11.9697C6.98532 11.829 7.17609 11.75 7.375 11.75H12.625C12.8239 11.75 13.0147 11.829 13.1553 11.9697C13.296 12.1103 13.375 12.3011 13.375 12.5C13.375 12.6989 13.296 12.8897 13.1553 13.0303C13.0147 13.171 12.8239 13.25 12.625 13.25H7.375C7.17609 13.25 6.98532 13.171 6.84467 13.0303C6.70402 12.8897 6.625 12.6989 6.625 12.5ZM7.375 14.75C7.17609 14.75 6.98532 14.829 6.84467 14.9697C6.70402 15.1103 6.625 15.3011 6.625 15.5C6.625 15.6989 6.70402 15.8897 6.84467 16.0303C6.98532 16.171 7.17609 16.25 7.375 16.25H10.375C10.5739 16.25 10.7647 16.171 10.9053 16.0303C11.046 15.8897 11.125 15.6989 11.125 15.5C11.125 15.3011 11.046 15.1103 10.9053 14.9697C10.7647 14.829 10.5739 14.75 10.375 14.75H7.375Z" fill="white" fill-opacity="0.6"/>
</svg>
