<svg width="25" height="20" viewBox="0 0 25 20" fill="none" xmlns="http://www.w3.org/2000/svg">
<path d="M11.458 7.83325C11.458 7.21193 10.9543 6.70825 10.333 6.70825C9.71169 6.70825 9.20801 7.21193 9.20801 7.83325V12.1666C9.20801 12.7879 9.71169 13.2916 10.333 13.2916C10.9543 13.2916 11.458 12.7879 11.458 12.1666V7.83325Z" fill="white" fill-opacity="0.5"/>
<path fill-rule="evenodd" clip-rule="evenodd" d="M7.08366 0.208252C4.92503 0.208252 3.12509 0.450832 1.95483 1.62109C0.784572 2.79135 0.541992 4.59129 0.541992 6.74992V7.29159C0.541992 7.91291 1.04567 8.41659 1.66699 8.41659C2.54067 8.41659 3.25033 9.12624 3.25033 9.99992C3.25033 10.8736 2.54067 11.5833 1.66699 11.5833C1.04567 11.5833 0.541992 12.0869 0.541992 12.7083V13.2499C0.541992 15.4085 0.784572 17.2085 1.95483 18.3787C3.12509 19.549 4.92503 19.7916 7.08366 19.7916H17.917C20.0756 19.7916 21.8756 19.549 23.0458 18.3787C24.2161 17.2085 24.4587 15.4085 24.4587 13.2499C24.4587 12.6286 23.955 12.1249 23.3337 12.1249C22.46 12.1249 21.7503 11.4153 21.7503 10.5416C21.7503 9.66791 22.46 8.95825 23.3337 8.95825C23.955 8.95825 24.4587 8.45457 24.4587 7.83325V6.74992C24.4587 4.59129 24.2161 2.79135 23.0458 1.62109C21.8756 0.450832 20.0756 0.208252 17.917 0.208252H7.08366ZM9.20801 2.45825V3.49992C9.20801 4.12124 9.71169 4.62492 10.333 4.62492C10.9543 4.62492 11.458 4.12124 11.458 3.49992V2.45825H17.917C20.0917 2.45825 21.0001 2.75734 21.4548 3.21208C21.9096 3.66682 22.2087 4.57521 22.2087 6.74992V6.87614C20.6409 7.35708 19.5003 8.81671 19.5003 10.5416C19.5003 12.2582 20.6301 13.7122 22.1863 14.2001C22.1089 15.7038 21.8368 16.4058 21.4548 16.7878C21.0001 17.2425 20.0917 17.5416 17.917 17.5416H11.458V16.4999C11.458 15.8786 10.9543 15.3749 10.333 15.3749C9.71169 15.3749 9.20801 15.8786 9.20801 16.4999V17.5416H7.08366C4.90895 17.5416 4.00056 17.2425 3.54582 16.7878C3.12109 16.363 2.83215 15.5426 2.79586 13.6642C4.36161 13.182 5.50033 11.7234 5.50033 9.99992C5.50033 8.27646 4.36161 6.81781 2.79586 6.33566C2.83215 4.45729 3.12109 3.63681 3.54582 3.21208C4.00056 2.75734 4.90895 2.45825 7.08366 2.45825H9.20801Z" fill="white" fill-opacity="0.5"/>
</svg>
