<svg width="31" height="30" viewBox="0 0 31 30" fill="none" xmlns="http://www.w3.org/2000/svg">
<path d="M16.9167 11.25H9.41669" stroke="#A3A3A3" stroke-width="2" stroke-linecap="round" stroke-linejoin="round"/>
<path d="M28.1667 13.7124V16.2875C28.1667 16.975 27.6167 17.5375 26.9167 17.5625H24.4667C23.1167 17.5625 21.8792 16.575 21.7667 15.225C21.6917 14.4375 21.9917 13.7 22.5167 13.1875C22.9792 12.7125 23.6167 12.4375 24.3167 12.4375H26.9167C27.6167 12.4625 28.1667 13.0249 28.1667 13.7124Z" stroke="#A3A3A3" stroke-width="2" stroke-linecap="round" stroke-linejoin="round"/>
<path d="M22.5167 13.1875C21.9917 13.7 21.6917 14.4375 21.7667 15.225C21.8792 16.575 23.1167 17.5625 24.4667 17.5625H26.9167V19.375C26.9167 23.125 24.4167 25.625 20.6667 25.625H9.41669C5.66669 25.625 3.16669 23.125 3.16669 19.375V10.625C3.16669 7.225 5.21669 4.85 8.40419 4.45C8.72919 4.4 9.06669 4.375 9.41669 4.375H20.6667C20.9917 4.375 21.3042 4.38748 21.6042 4.43748C24.8292 4.81248 26.9167 7.2 26.9167 10.625V12.4375H24.3167C23.6167 12.4375 22.9792 12.7125 22.5167 13.1875Z" stroke="#A3A3A3" stroke-width="2" stroke-linecap="round" stroke-linejoin="round"/>
</svg>
